/* XPM */
static char *result[] = {
/* columns rows colors chars-per-pixel */
"32 32 16 1 ",
"  c #60EF21",
". c #8CF72B",
"X c #F0FDDC",
"o c #349718",
"O c #ADEC7E",
"+ c #44B71C",
"@ c #E1FE5C",
"# c #78E53F",
"$ c #48E519",
"% c #6ABD41",
"& c #B3FE2F",
"* c None",
"= c black",
"- c black",
"; c black",
": c black",
/* pixels */
"********************************",
"********************************",
"**************     *************",
"***********#...O... . .*********",
"********** ....XO.#  ....*******",
"********* $#$  .O..   .&..******",
"*******##OO$$  #$$#$+$ .&..&****",
"******   #$$$$+ooo%+oo+O@. ..***",
"***** . $$#%$$o#.#..%+o+#.O..***",
"****...  $ $+o++$#$   %++& &..**",
"***.&O    $$#+%+++%  $.$+# ...**",
"***.O.## $$#+oo+oo%# +# #+$...**",
"***...#X$$$#++$+oooo+$+.#%% ..**",
"***..O$# $%++$+oooo+o.+#+$+ ..**",
"***..O.$$o+$$$o+oo%$%#%$+$+#.O&*",
"**..&&.#+o+$ %++%$o++%##+$+..&O*",
"**..&&Oooo%$ o## #%$%#& +$$...**",
"**..&&%ooo$$$o$ $++%%OO .$#.&&O*",
"**..&XXooo$$$o# $$$#OO$$#+ .@O.*",
"**&.&&#ooo++$++..   #++%o$.#O..*",
"***.&.#%%o%+ $o%OOO$+o%o%.O@..**",
"***.&. ooo$+..#++#O $ ++ #O..***",
"*** O@.++o%# ..#$%%$#+o+$$...***",
"***. ..OOo+%$  %+%%%%+++%O..****",
"****#O...O#o+%+++%#$++%+#  *****",
"****** ... O%%%%%%$+#++#.#******",
"******.   #$O##++++%+#..#*******",
"*******&..#$ ##O OXXOO.&********",
"**********.&.  ...OOOO&*********",
"*************&&&&&&&&***********",
"********************************",
"********************************"
};
