/* XPM */
static char *result[] = {
/* columns rows colors chars-per-pixel */
"32 32 16 1 ",
"  c #60EF21",
". c #8CF72B",
"X c #F0FDDC",
"o c #349718",
"O c #ADEC7E",
"+ c #44B71C",
"@ c #E1FE5C",
"# c #78E53F",
"$ c #48E519",
"% c #6ABD41",
"& c #B3FE2F",
"* c None",
"= c black",
"- c black",
"; c black",
": c black",
/* pixels */
"********************************",
"********************************",
"*************####  *************",
"**********..... #     .*********",
"*********..&&..  OO$#O...*******",
"*******&....$$ $$$#$# ....******",
"******. .OO$O    #$$$ .OO  &****",
"*****..&&&.#O$  $$$$   OX. ..***",
"****..&&&.#$ $$$$$+$+%#.O . .***",
"***..&&&&O#$+$$##%o++oo$..#...**",
"***..&@X+oooo++%+o+++#%+#.  ..**",
"**..&..Ooooo+$$+++o+$###+% #..**",
"** O&.%ooo+$#$$$$%+oo$$.%o$ O.**",
"** .&#o%oo$$$ #+ooooo% $$o+.&.**",
"**#O.+oo++$$$+o%%oooo#   +o.&..*",
"** .O#+o$o$$o+.%++oooo $ +o#O. *",
"** ..#o%$+ $o#   #+$+o#+.$+#. .*",
"**. .O%%# .++.$$%#o%+#$+ #o&.O&*",
"**.  .%o$ .%+. $++$++ +#.%%..&.*",
"**O.#$O+$ .#+O  $+$+#$%#%%$ ...*",
"***.$$O%++%%%OO..O#O&#$+$+$...&*",
"***..$ #%%++%$.$+##O.#+++$ ..&**",
"*** . #.++++%%$$oo+$  +$+#...***",
"***. . .%%%$#%#$#%%#%$$ .&.O****",
"****#.&. O+$$++o+oo++$ ....&****",
"****** &OOOo++++++$ ..&&&.O*****",
"******. .OXO%+%o+%$.OO.@&.******",
"*******&.&@X.###+O .&&&..*******",
"**********&O&.... .....&********",
"*************&&....&O***********",
"********************************",
"********************************"
};
