/* XPM */
static char *result[] = {
/* columns rows colors chars-per-pixel */
"32 32 16 1 ",
"  c #60EF21",
". c #8CF72B",
"X c #F0FDDC",
"o c #349718",
"O c #ADEC7E",
"+ c #44B71C",
"@ c #E1FE5C",
"# c #78E53F",
"$ c #48E519",
"% c #6ABD41",
"& c #B3FE2F",
"* c None",
"= c black",
"- c black",
"; c black",
": c black",
/* pixels */
"********************************",
"********************************",
"**********&.... ....************",
"********.#....&&.......*********",
"******** O&&&@&&&.O..&...*******",
"*******O.@...X&&&&O  ..O .******",
"*****. ...#%+O%%.#$OO$     &****",
"*****# .O+o%o%oo+$ O#  $ # ..***",
"****& ..O+ooooooo+$$   $$O  .***",
"***..  O+oo+++++oo%$$$ #$O$ ..**",
"***..# #+%#++$$$%+%#$$$$$$###.**",
"**..#$#%+#$+$$$$$$$%%#$$%$  ..**",
"** .$ O%$ .. ++%#$$+o%+$$  ...**",
"** .  O+$ .$+oooo+% +++++  ...**",
"**#. .+#%#.++# .%+o+%o+%o% OX..*",
"** &##o%+%$+. $ +ooooo$%%+#OO  *",
"** ..$%++%%O.#$  +oooo$#%+#O. .*",
"**..OO%++#$X. $+#+ooo%$$## . .&*",
"**..OO+#%%$O. +++o$oo#  .+  #..*",
"**O&XOo$$#$ %O%#%+$o+  $%o$ #..*",
"***.XO%$+%$%+.O%o+%%#$  oo$#..&*",
"***.O.%++++#o+O@.# $+% +o$ O..**",
"*** ..#%++o+%+$O.#+%  $++#O..***",
"***. &.#o%++o#  $%$%.#+o#O...***",
"****#...%%$ $o$ +++%%o+..&..****",
"****** ...$#.$$$$$%++$..O  *****",
"******.  ..OO... %$$  ..&..*****",
"*******&....O.&..........&******",
"**********...&@&.&O.....&*******",
"************&...&O&&.&**********",
"********************************",
"********************************"
};
