/* XPM */
static char *result[] = {
/* columns rows colors chars-per-pixel */
"32 32 16 1 ",
"  c #60EF21",
". c #8CF72B",
"X c #F0FDDC",
"o c #349718",
"O c #ADEC7E",
"+ c #44B71C",
"@ c #E1FE5C",
"# c #78E53F",
"$ c #48E519",
"% c #6ABD41",
"& c #B3FE2F",
"* c None",
"= c black",
"- c black",
"; c black",
": c black",
/* pixels */
"********************************",
"**************&.**#.************",
"**********&.&.   O ..&**********",
"********. ... ....&@&..&********",
"******** ..$# ..O#...&...*******",
"*******..   $ O%#++#.&&...******",
"*****. . # OO++ooo%o#X@&&..&****",
"*****...O##%++%%%ooo%%.&&....***",
"****&...%o%%$  $%$ooooO&&....***",
"***.&OOO%+++ ..#++$ooo%#.O....**",
"***.OXO+%+++#.   $$$+o+$$$..O&**",
"**..XO%+%%+%$+o++$$$+o+$OO#.O.**",
"** &O#%$#+%%+%#%o+$$$+%$$# ...**",
"** &.+%++#$OO.. $o% $$%$$   O **",
"**#..%++%$ O. $$.#o#$+#$$  $  .*",
"** ..++o+ $#  $ $%o%$o#$$ $$   *",
"** .#o+o$%o##++#$ooo o%%$#### .*",
"**...%$++++O%$+++ooo$o%+$%$OO &*",
"**...$ $o%$O%#+o+oooo+++$$$#$ .*",
"**O.... o#$OO++ +ooo+%++$$$#  .*",
"***..O..+# ..#%+oo++$%#o$   ..&*",
"***..O..$ ##%$ #+##$##%o .....**",
"***#.O.. $++$%++$    %o# .O..***",
"***...@&.$$++%.#%$ ##%$.OXO..***",
"****..&&.O++$#.  $$oo+.... .****",
"******....#$+++%+ooo+  ..  *****",
"******...O.. $#%+++      ..*****",
"*******&&&.....&&OOOO....&******",
"**********.....O.O......&*******",
"***********&.... ....O**********",
"*************&.&..**************",
"********************************"
};
