/* XPM */
static char *result[] = {
/* columns rows colors chars-per-pixel */
"32 32 16 1 ",
"  c #60EF21",
". c #8CF72B",
"X c #F0FDDC",
"o c #349718",
"O c #ADEC7E",
"+ c #44B71C",
"@ c #E1FE5C",
"# c #78E53F",
"$ c #48E519",
"% c #6ABD41",
"& c #B3FE2F",
"* c None",
"= c black",
"- c black",
"; c black",
": c black",
/* pixels */
"********************************",
"**************&.**#.************",
"**********&.&.. .....&**********",
"********. .&&.O..   ...&********",
"******** .OXXXO O # $#  .&******",
"*******....####++##O $ .  .*****",
"*****. ..#%%++%%%%%+O O.. #.****",
"*****....+++%#$+++%%o%OOO.O .***",
"****&# #o++++++++#  %#o%%.&O#***",
"***.&..%%+o%#%%#%#.  $+o+%.O..**",
"***... $$o%$  #%+$ .$+%o++.&&.**",
"**...OO ++$+$#XO#oo $o%o%o.&..**",
"**..OO. o%o+%#. ..o+$++oo%O@&.**",
"**..O#.+%%$#O# $$ %o$$$oo+O&&..*",
"**.O&. %#$OO%++$$ %o$$$oooO&&..*",
"**.&&.#$# OO#$%# #%+  +oo%&&&..*",
"**....$++#.%+++#%%+%$$oo+#.....*",
"**.&.O+$+%$%+$++o+o$$$++$  O..&*",
"**&O.#+$+#+ +++ooo+$++#$$O$....*",
"**O...$$%#+#ooooo+$++#$$$OO ...*",
"***...$%#.$+#%+oo+oo+#$$  $.&.&*",
"***&.. %+ .%$ #+++++%$$    ..&**",
"***.....o+$     #%+o+$  $$O..***",
"***O....#o++$#.###++$$$#$  #.***",
"****&.O..#+oo+#%ooo$$$$O## .****",
"*****&. OO $++%%+##  $#O.  *****",
"******. ..O   ..O. . $#  ..*****",
"*******&...O# . .OO..O  .&******",
"**********.... ...O.. ..&*******",
"***********...... ...O**********",
"*************&.&..**************",
"********************************"
};
