/* XPM */
static char *result[] = {
/* columns rows colors chars-per-pixel */
"32 32 16 1 ",
"  c #60EF21",
". c #8CF72B",
"X c #F0FDDC",
"o c #349718",
"O c #ADEC7E",
"+ c #44B71C",
"@ c #E1FE5C",
"# c #78E53F",
"$ c #48E519",
"% c #6ABD41",
"& c #B3FE2F",
"* c None",
"= c black",
"- c black",
"; c black",
": c black",
/* pixels */
"********************************",
"**************&.**#.************",
"**********&.&.# #....&**********",
"********. .... ....&O&&O********",
"********......O%###.OX&..&******",
"*******.OOO@O$%+o%o%#XX.. .*****",
"*****..&@.#.. $++++$o%OO..#.****",
"*****.&&..  $+o+o+%$%++$O & .***",
"****&.&..#$++%%$$$#+#+%o## . ***",
"***O.O.O$$  #+oo% %%+%+%%. #..**",
"***....+%++  #%%+ .%#++$%O#$..**",
"**.&..$+$o$.OOOO .X%%%#$+%## &**",
"**... +%+$%#.%%+  .O+ . %o#   &*",
"**...$%%##+ +%#++$.&o$. %%OO. .*",
"**.& .o#.%$#%++%+% .o$. #%+O.  *",
"**.O..o#.o$o%$o#   #o$$o#o+O.  *",
"**. .#+$.+#oo+o++%#oo$++%o+%.O#*",
"**..@#o+ $.%oooo%%o+$$$+ooo%&. *",
"**..&.+o$  #ooooo+# $$$oo%+ &@ *",
"**O.&.%o%# %oo++%$$$#%ooo%#.&& *",
"***.O $o+.##$oo+%+$$+ooooOO&&..*",
"***..#  %%%#+%%+o%+%oooo%O@&..**",
"***. .   %o%%+o%%#$$$$#.O&&..***",
"***O..##O.#oo+++$$$$ # .&&&..***",
"****&...OO   $$$$$  OO O....****",
"*****&. .X.. $$$#$  ##.O...*****",
"******.  O..$#$$$$    .. &.*****",
"*******&.... ##X   O.&O..&******",
"**********...  #   #....&*******",
"***********...... ...O**********",
"*************&.&..**************",
"********************************"
};
