/* XPM */
static char *result[] = {
/* columns rows colors chars-per-pixel */
"32 32 16 1 ",
"  c #60EF21",
". c #8CF72B",
"X c #F0FDDC",
"o c #349718",
"O c #ADEC7E",
"+ c #44B71C",
"@ c #E1FE5C",
"# c #78E53F",
"$ c #48E519",
"% c #6ABD41",
"& c #B3FE2F",
"* c None",
"= c black",
"- c black",
"; c black",
": c black",
/* pixels */
"********************************",
"**************&.**..************",
"**********&.O&O......&**********",
"********O.&..O&.&@&....O********",
"*******&.........&.O.....&******",
"******&.&..  ##.....O . # .*****",
"*****..O. $$+++$$$$..$#O..#.****",
"*****. ...%+%$++$#o+$ %o#.. .***",
"****&.O&#o+#%++%# #%oo++%#.& ***",
"***O..OOo+# .#%#O#$+%+o+++.O..**",
"***..O.+o$.%+% .O@%++ +++%#XO.**",
"**...  o+ %+$#%++#O#+$#%++%XO&**",
"**... +o+   oo$+#%# $ $%#++XO&&*",
"**..  %o#  #oo$o++% OO%%#$+OO..*",
"**. # #%. $#oo+o#+$ OO+#+%%#.. *",
"**.. . %%#%oooo% $%..%%%++o#..#*",
"**. .O#o##$+oooo% $ .o$%+#+# .#*",
"**. OO +%%%o+oo%%. #o+..$%%.#.#*",
"**..OO #o++++#++oooo+ . $+O  . *",
"**O.... ++o+o+$$#%++    +%O $. *",
"***...  $$+#+++$$$$$$+%#%% # ..*",
"***...#$$$$$##+$$#$$+%$%oO.$..**",
"***.  ##$# $$$#+o+++o+oo%O. #***",
"***O.  O##$ $$$+ooooo%o+#.. .***",
"****&. . $   $.$%ooo%%++..  &***",
"*****&. # $  XO$#O%OO# .&O #****",
"******.   O.$# .&&&@O..OO .*****",
"*******&...O...O.&&&&&&O..******",
"**********..O....&&......*******",
"***********&...... ..O**********",
"*************&.&..**************",
"********************************"
};
