/* XPM */
static char *result[] = {
/* columns rows colors chars-per-pixel */
"32 32 16 1 ",
"  c #60EF21",
". c #8CF72B",
"X c #F0FDDC",
"o c #349718",
"O c #ADEC7E",
"+ c #44B71C",
"@ c #E1FE5C",
"# c #78E53F",
"$ c #48E519",
"% c #6ABD41",
"& c #B3FE2F",
"* c None",
"= c black",
"- c black",
"; c black",
": c black",
/* pixels */
"********************************",
"**************O.&.&O************",
"**********&.&.......&&**********",
"********O.......O.....&O********",
"*******&. .OO&@.&. ...O&.&******",
"******&...#  #%%%##$ ..&&..*****",
"*****.. .  $+oo++%+%+$O..&.O****",
"*****  . . oo+$$ .#%$+%..@O..***",
"****& .O..#+#$ ## #+o$$ .&&.#***",
"***O..XOO%%#   $%++#%o$# .O...**",
"***.... #o%#$$.#+.$%##.%$.O...**",
"**..... %o.#$%+oo+%#&# %+.O..O**",
"**. .$  +++$oooo$$++OO$%o # ..&*",
"**. ##$$$+++oooo%o%##O$%o$$O #.*",
"**. $#$$$o+o%ooo+%+%#O+%+o$%.. *",
"**. OO$$$%+o$ooo #++#$+$%o++..#*",
"**.  $# $$+o +++$ $ .#$ %++%..#*",
"**.# $$ $$#+$#o#.$$ .O $%+++.&#*",
"**.     $$%+$ %o$ ..O#%%%+#%.& *",
"**O.O    $#+$$$+o%#%+%#+#$o#XO *",
"***...$OO$+o+#$$++o+$%+%%+#XX&.*",
"***.&. OO $oo$$$$  ..%++%%OX&.**",
"***..O.. ##ooo$++$.. %%%o#O..***",
"***O...OO&Ooooo+%%  $+%+##...***",
"****&. ..&&+o+oo+%#++oOO .. &***",
"*****&&.&&&OO+%oooo%#O.  & #****",
"******...&&@&#+o+%#O $$$...*****",
"*******&. .&&..##...$# &..******",
"*********...&&@&.... ....*******",
"***********..OO O   .O**********",
"*************#...#.*************",
"********************************"
};
