/* XPM */
static char *result[] = {
/* columns rows colors chars-per-pixel */
"32 32 16 1 ",
"  c #60EF21",
". c #8CF72B",
"X c #F0FDDC",
"o c #349718",
"O c #ADEC7E",
"+ c #44B71C",
"@ c #E1FE5C",
"# c #78E53F",
"$ c #48E519",
"% c #6ABD41",
"& c #B3FE2F",
"* c None",
"= c black",
"- c black",
"; c black",
": c black",
/* pixels */
"********************************",
"**************O.&.&O************",
"**********&.O. ......&**********",
"********O........ .....O********",
"*******&. O..XXO . #......******",
"******&.    ...OO. $ .&O .&*****",
"*****..  ##$. #$%$+o+$O&.O.&****",
"*****   X#$  %oo+#%ooo+...&.O***",
"****& # #$$$$o%.#.#$$++o. ...***",
"***O.  $$#$$+%+%#$    $+% ..&O**",
"***..O  $ $+++%++%# +# .o$ ...**",
"**..O. . $$#%ooooo+%#+###+ ...**",
"**...    $$%o+$ooooo%#%#++$.O&&*",
"**... OO$$#%+ oooo+%+ +#o$o&&.&*",
"**....#O$$%%$%ooo++$+###+$$..&.*",
"**..OO $$o+$$%++$#+++#& %$#.&&.*",
"**...&.#+o+$ +%% #%#%OO .$#.@&.*",
"**..&&O%oo% $o% $$++$O#$#+ ....*",
"**..&&.ooo$$$o% $$  O#+%+%..O..*",
"**O.&&O%oo+$$+o....#%o+%o .@..#*",
"***.&&O%+o+o$ +o#OXO$%$++ #....*",
"***..&.%%o+++. %+%$  $+o%%#...**",
"***..&.$ooo#$ ..##%%#%+++%O .***",
"***O.@O.++o%%   %+++%++%+#.#.***",
"****#.&&OO++%%$++++#$$%+#.. &***",
"*****.#O..OO%%o%#+%++o%#.. #****",
"******.  .. $OO#++%#OOOO&..*****",
"*******.   $#$ O#O.OXXXO..******",
"*********... #   ..&.&...*******",
"***********....... ..O**********",
"*************#...#.*************",
"********************************"
};
