/* XPM */
static char *result[] = {
/* columns rows colors chars-per-pixel */
"32 32 10 1 ",
"  c #140E29",
". c #222227",
"X c #302820",
"o c #4C485A",
"O c #6C7589",
"+ c #8491A0",
"@ c #9BADB7",
"# c #B9CED1",
"$ c #E3ECED",
"% c None",
/* pixels */
"%%%%%%%%%%%%%%%%%%%%%%%%%%%%%%%%",
"%%%%%%%%%%%%%%%  %%%%%%%%%%%%%%%",
"%%%%%%%%%%%%%% $$ %%%%%%%%%%%%%%",
"%%%%%%%%%%%%% @$$@ %%%%%%%%%%%%%",
"%%%%%%%%%%%% @O@@O@ %%%%%%%%%%%%",
"%%%%%%%%%%% @$O++O$@ %%%%%%%%%%%",
"%%%%%%%%%% OO#@++@#OO %%%%%%%%%%",
"%%%%%%%%% O##OO++OO##O %%%%%%%%%",
"%%%%%%%%% O@@#@OO@#@@O %%%%%%%%%",
"%%%%%%%%% o@@@@@@@@@@o %%%%%%%%%",
"%%%%%%%%% @oo.@@@@.oo@ %%%%%%%%%",
"%%%%%%%%%% O@o....o@O#$ %%%%%%%%",
"%%%%%%%%%% OO@o..o@OO### %%%%%%%",
"%%%%%%%%%%% oO@oo@Oo+@@@ %%%%%%%",
"%%%%%%%%%% $#oO@@Oo@O+@+ %%%%%%%",
"%%%%%%%%% ###@oOOo$@oOO %%%%%%%%",
"%%%%%%%%% @@@++@$$@Ooo# %%%%%%%%",
"%%%%%%%%% +@+OOO@@OOo@# %%%%%%%%",
"%%%%%%%%%% OOoOOOOOoo++ %%%%%%%%",
"%%%%%%%%%% #oooOOOo.oo+ %%%%%%%%",
"%%%%%%%%%% #@+.oOo.++@@ %%%%%%%%",
"%%%%%%%%%% +++o.o.+@#@O %%%%%%%%",
"%%%%%%%%%% +oo+.o+@##O %%%%%%%%%",
"%%%%%%%%%% @@O@.o@@## %%%%%%%%%%",
"%%%%%%%%%% O@Oooo@@## %%%%%%%%%%",
"%%%%%%%%%%% OOOoo### %%%%%%%%%%%",
"%%%%%%%%%%% @@OoooOO %%%%%%%%%%%",
"%%%%%%%%%%% OOOoo+@o %%%%%%%%%%%",
"%%%%%%%%%%X @@O o+@# X%%%%%%%%%%",
"%%%%%%%%%%XXXXX O@@# X%%%%%%%%%%",
"%%%%%%%%%%%XXXX O@@@ %%%%%%%%%%%",
"%%%%%%%%%%%%%XXX +@@ %%%%%%%%%%%"
};
