/* XPM */
static char *result[] = {
/* columns rows colors chars-per-pixel */
"32 32 10 1 ",
"  c #140E29",
". c #222227",
"X c #302820",
"o c #4C485A",
"O c #6C7589",
"+ c #8491A0",
"@ c #9BADB7",
"# c #B9CED1",
"$ c #E3ECED",
"% c None",
/* pixels */
"%%%%%%%%%%%%%%%  %%%%%%%%%%%%%%%",
"%%%%%%%%%%%%%% $$ %%%%%%%%%%%%%%",
"%%%%%%%%%%%%% @$$@ %%%%%%%%%%%%%",
"%%%%%%%%%%%% @O@@O@ %%%%%%%%%%%%",
"%%%%%%%%%%% @$O++O$@ %%%%%%%%%%%",
"%%%%%%%%%% OO#@++@#OO %%%%%%%%%%",
"%%%%%%%%% O##OO++OO##O %%%%%%%%%",
"%%%%%%%%% O@@#@OO@#@@O %%%%%%%%%",
"%%%%%%%%% o@@@@@@@@@@o %%%%%%%%%",
"%%%%%%%%% @oo.@@@@.oo@ %%%%%%%%%",
"%%%%%%%%%% O@o....o@O %%%%%%%%%%",
"%%%%%%%%%% OO@o..o@OO   %%%%%%%%",
"%%%%%%%%%  OoO@oo@OoO@#$ %%%%%%%",
"%%%%%%%% $#@+oO@@Oo+@@### %%%%%%",
"%%%%%%% ###@+@oOOo@+@+@@@ %%%%%%",
"%%%%%%% @@@++#####$+OO+@+ %%%%%%",
"%%%%%%% +@+OO+#$$$+OooOO %%%%%%%",
"%%%%%%%% OOooOO@@+Ooooo# %%%%%%%",
"%%%%%%%% #oo.oOOOOo.o+@# %%%%%%%",
"%%%%%%%% #@+o.oOOo.o++++ %%%%%%%",
"%%%%%%%% ++++o.oo.o++oo+ %%%%%%%",
"%%%%%%%% +oo@+o.oo+@oO@@ %%%%%%%",
"%%%%%%%% @@O@@+oo+@#OO@O %%%%%%%",
"%%%%%%%% O@O#@@oo@@#OOO %%%%%%%%",
"%%%%%%%%% OO#@+oo@@#O  %%%%%%%%%",
"%%%%%%%%%%  ++ooooOO %%%%%%%%%%%",
"%%%%%%%%%%% oooooO++ %%%%%%%%%%%",
"%%%%%%%%%%% OooooO@@ %%%%%%%%%%%",
"%%%%%%%%%%X OOooo@@# X%%%%%%%%%%",
"%%%%%%%%%%XXXXX o@@# X%%%%%%%%%%",
"%%%%%%%%%%%XXXXX O@@ %%%%%%%%%%%",
"%%%%%%%%%%%%%XXXXXX%%%%%%%%%%%%%"
};
