/* XPM */
static char *result[] = {
/* columns rows colors chars-per-pixel */
"32 32 79 1 ",
"  c #161716231621",
". c #16611A8719E5",
"X c #16691E391D04",
"o c #168020061E8D",
"O c #16E237BF32A1",
"+ c #16243A00345D",
"@ c #16FC3C03363F",
"# c #16F13CAC36CB",
"$ c #16353DDE37A3",
"% c #171640AD3A36",
"& c #1707411E3A8F",
"* c #1704416E3AD2",
"= c #1638427A3B87",
"- c #162E430D3BFD",
"; c #18CF437C3D0E",
": c #11C349A94093",
"> c #11B64A4E411C",
", c #10F94BA34211",
"< c #10DC4C324281",
"1 c #101A4D524349",
"2 c #10354E2143F9",
"3 c #11ED4E454467",
"4 c #12174FAF459D",
"5 c #103D51234671",
"6 c #12A350324624",
"7 c #1257526347E3",
"8 c #104954F34993",
"9 c #1061553149CB",
"0 c #128957654C05",
"q c #109F58C54CC6",
"w c #130A57E74C89",
"e c #10AC5CC8500F",
"r c #10CD5D58508E",
"t c #10EF5E5E516D",
"y c #10EC5EEF51E3",
"u c #1FEC57884FCD",
"i c #2378572A5088",
"p c #242957AF5113",
"a c #1FF558435068",
"s c #215A5AA052CD",
"d c #1FB85E5C5450",
"f c #112265E1579E",
"g c #1145660757C4",
"h c #114266535802",
"j c #11A5670658A8",
"k c #137766C858F7",
"l c #117D6AF15BD6",
"z c #11856B235C00",
"x c #13A86AB95C3B",
"c c #160C6B4D5D5C",
"v c #11A96E105E6E",
"b c #11AF6EB45EF6",
"n c #11B56F015F36",
"m c #2E3967605F5E",
"M c #16346F3A609B",
"N c #16C66F7160E2",
"B c #11D67197615B",
"V c #1181724961DE",
"C c #11C3721861BF",
"Z c #11D3728F6226",
"A c #11B6730C6283",
"S c #1476717D61FB",
"D c #147A722F628D",
"F c #14C9730B6349",
"G c #1207753F6465",
"H c #118D76BD6584",
"J c #121276746564",
"K c #129376456553",
"L c #12A47737661D",
"P c #17947A5D6993",
"I c #17457B266A21",
"U c #21C67A576BA0",
"Y c #1E6680846FC7",
"T c #3E2693CD8556",
"R c #3C5697B48804",
"E c #51B58DB1846B",
"W c #4E6C90E2863D",
"Q c #4EA69FED9226",
"! c None",
/* pixels */
"!!!!!!!!!!!!!!!!!!!!!!!!!!!!!!!!",
"!!!!!!!!!!!!!!!!!!!!!!!!!!!!!!!!",
"!!!!!!!!!!!!!!!!!!!!!!!!!!!!!!!!",
"!!!!!!!!!!!!!!!!!!!!!!!!!!!!!!!!",
"!!!!!!!!!!!!!!!!!!!!!!!!!!!!!!!!",
"!!!!!!!!!!!!!!!!!!!!!!!!!!!!!!!!",
"!!!!!!!!!!!!!!!!!!!!!!!!!!!!!!!!",
"!!!!!!!!!!!!!!!!!!!!!!!!!!!!!!!!",
"!!!!!!!!!!!!!!!!!!!!!!!!!!!!!!!!",
"!!!!!!!!!!!!!!!!!!!!!!!!!!!!!!!!",
"!!!!!!!!!!!!!!!!!!!!!!!!!!!!!!!!",
"!!!!!!!!!!!!!!!!!!!!!!!!!!!!!!!!",
"!!!!!!!!!!!!!!iiii!!!!!!!!!!!!!!",
"!!!!!!!!!!!!EmNDDMa;!!!!!!!!!!!!",
"!!!!!!!!!!!WQTPHHKx7-!!!!!!!!!!!",
"!!!!!!!!!!pURYKZGbrh3%!!!!!!!!!!",
"!!!!!!!!!!sFILZybth9<=!!!!!!!!!!",
"!!!!!!!!!iMGVGCCGzq21>&!!!!!!!!!",
"!!!!!!!!!iDAybyZnrf51,&!!!!!!!!!",
"!!!!!!!!!iSVBBBvrj021,&!!!!!!!!!",
"!!!!!!!!!ictltzrhwd61>&!!!!!!!!!",
"!!!!!!!!!!ukehqg86d6,-!!!!!!!!!!",
"!!!!!!!!!!;7h9251141:@!!!!!!!!!!",
"!!!!!!!!!!!-3<1111<>+X  !!!!!!!!",
"!!!!!!!!!!!!%=>,,:$OX     !!!!!!",
"!!!!!!!!!!!!!!&&*#o.     !!!!!!!",
"!!!!!!!!!!!!!!!!!!!!!!!!!!!!!!!!",
"!!!!!!!!!!!!!!!!!!!!!!!!!!!!!!!!",
"!!!!!!!!!!!!!!!!!!!!!!!!!!!!!!!!",
"!!!!!!!!!!!!!!!!!!!!!!!!!!!!!!!!",
"!!!!!!!!!!!!!!!!!!!!!!!!!!!!!!!!",
"!!!!!!!!!!!!!!!!!!!!!!!!!!!!!!!!"
};
