/* XPM */
static char *result[] = {
/* columns rows colors chars-per-pixel */
"32 32 91 1 ",
"  c #161716231621",
". c #16611A8719E5",
"X c #16691E391D04",
"o c #168020061E8D",
"O c #16E237BF32A1",
"+ c #16233A00345C",
"@ c #16FC3C03363F",
"# c #16F13CAC36CB",
"$ c #16353DDE37A3",
"% c #171640AD3A36",
"& c #1707411E3A8F",
"* c #1704416E3AD2",
"= c #1638427A3B87",
"- c #162E430D3BFD",
"; c #18CF437C3D0E",
": c #11C349A94093",
"> c #11B74A4F411D",
", c #10FC4BA74215",
"< c #10E14C384287",
"1 c #10124D554349",
"2 c #10194E2743F8",
"3 c #11474EBE4494",
"4 c #11794EFE44CF",
"5 c #11ED4E454467",
"6 c #1037511F466C",
"7 c #1257526347E3",
"8 c #104C54FB499C",
"9 c #1061553149CB",
"0 c #18D956B34BFE",
"q c #19E257C24D0A",
"w c #109058B94CB9",
"e c #109F58C54CC6",
"r c #176F5AF24FAC",
"t c #10AC5CC8500F",
"y c #10BF5D6A509A",
"u c #10D75E4B5159",
"i c #10ED5EF051E3",
"p c #17B85B364FED",
"a c #1FEC57884FCD",
"s c #236C57255083",
"d c #1FF558435068",
"f c #214E5A53528F",
"g c #16A261B15524",
"h c #16A561EE5557",
"j c #1146660857C5",
"k c #1149664A57FB",
"l c #122866B3587A",
"z c #137766C858F7",
"x c #122C674D58F9",
"c c #11286AC15BA1",
"v c #117D6AF15BD6",
"b c #11866B3C5C15",
"n c #13A86AB95C3B",
"m c #160C6B4D5D5C",
"M c #114E6DC95E24",
"N c #11AB6EB05EF2",
"B c #12AC6FC25FFF",
"V c #16256F2E608E",
"C c #11CE71916155",
"Z c #11C4721961C0",
"A c #11ED72AD6243",
"S c #120B72FC6287",
"D c #1476717D61FB",
"F c #147872396296",
"G c #1519726F62E0",
"H c #1228754E6476",
"J c #12C175F1651A",
"K c #118B769F656A",
"L c #123D76016512",
"P c #173276BF6684",
"I c #17417B2F6A27",
"U c #1E157F436EB4",
"Y c #36386AAF6399",
"T c #21557A216B5E",
"R c #20267BF06C90",
"E c #1E24803A6F82",
"W c #3484824A7513",
"Q c #3C57978F87E7",
"! c #3C3B98198850",
"~ c #463296F5896F",
"^ c #42B49CCE8D4F",
"/ c #4FF6921A8781",
"( c #4E3CA2C89450",
") c #4D7EA51F9602",
"_ c #50EFA2249458",
"` c #6097A31D9834",
"' c #6289A2899820",
"] c #7C3EC083B4D8",
"[ c #823DC837BC10",
"{ c #886BCF5CC2E8",
"} c None",
/* pixels */
"}}}}}}}}}}}}}}}}}}}}}}}}}}}}}}}}",
"}}}}}}}}}}}}}}}}}}}}}}}}}}}}}}}}",
"}}}}}}}}}}}}}}}}}}}}}}}}}}}}}}}}",
"}}}}}}}}}}}}}}}}}}}}}}}}}}}}}}}}",
"}}}}}}}}}}}}}}}}}}}}}}}}}}}}}}}}",
"}}}}}}}}}}}}}}}}}}}}}}}}}}}}}}}}",
"}}}}}}}}}}}}}}}}}}}}}}}}}}}}}}}}",
"}}}}}}}}}}}}}}}}}}}}}}}}}}}}}}}}",
"}}}}}}}}}}}}}}}}}}}}}}}}}}}}}}}}",
"}}}}}}}}}}}}}}}}}}}}}}}}}}}}}}}}",
"}}}}}}}}}}}}}}}}}}}}}}}}}}}}}}}}",
"}}}}}}}}}}}}}}}}}}}}}}}}}}}}}}}}",
"}}}}}}}}}}}}{}ssss}}}}}}}}}}}}}}",
"}}}}}}}}}}}['/TGFVd;}}}}}}}}}}}}",
"}}}}}}}}}}]`_(QIKLn7-}}}}}}}}}}}",
"}}}}}}}}}}Y~)^USHNyk5%}}}}}}}}}}",
"}}}}}}}}}}fR!ESiNuk9<=}}}}}}}}}}",
"}}}}}}}}}sVJPJCZHcw21>&}}}}}}}}}",
"}}}}}}}}}sFSuNiABhl61,&}}}}}}}}}",
"}}}}}}}}}sDZCCCMgWr11,&}}}}}}}}}",
"}}}}}}}}}smuvubyxpq31>&}}}}}}}}}",
"}}}}}}}}}}aztkej8304,-}}}}}}}}}}",
"}}}}}}}}}};7k9261131:@}}}}}}}}}}",
"}}}}}}}}}}}-5<1111<>+X  }}}}}}}}",
"}}}}}}}}}}}}%=>,,:$OX     }}}}}}",
"}}}}}}}}}}}}}}&&*#o.     }}}}}}}",
"}}}}}}}}}}}}}}}}}}}}}}}}}}}}}}}}",
"}}}}}}}}}}}}}}}}}}}}}}}}}}}}}}}}",
"}}}}}}}}}}}}}}}}}}}}}}}}}}}}}}}}",
"}}}}}}}}}}}}}}}}}}}}}}}}}}}}}}}}",
"}}}}}}}}}}}}}}}}}}}}}}}}}}}}}}}}",
"}}}}}}}}}}}}}}}}}}}}}}}}}}}}}}}}"
};
