/* XPM */
static char *result[] = {
/* columns rows colors chars-per-pixel */
"32 32 104 2 ",
"   c #161716231621",
".  c #16611A8719E5",
"X  c #16691E391D04",
"o  c #168020061E8D",
"O  c #16E237BF32A1",
"+  c #162339FF345C",
"@  c #16FC3C03363F",
"#  c #16F13CAC36CB",
"$  c #16353DDE37A3",
"%  c #171640AD3A36",
"&  c #1707411E3A8F",
"*  c #1704416E3AD2",
"=  c #1638427A3B87",
"-  c #162E430D3BFD",
";  c #18CF437C3D0E",
":  c #11C349A94093",
">  c #11B84A51411F",
",  c #11084B9F4210",
"<  c #10E74C27427A",
"1  c #10104D524347",
"2  c #10394DE443C2",
"3  c #10194E2743F7",
"4  c #114D4E934473",
"5  c #11ED4E454467",
"6  c #103D51234671",
"7  c #1257526347E3",
"8  c #106B551949BA",
"9  c #1061553149CB",
"0  c #12DA57524BF3",
"q  c #17DA55CB4B28",
"w  c #109C58C34CC3",
"e  c #10AC5CC8500F",
"r  c #10C45D6E509E",
"t  c #10735E91517F",
"y  c #10F15E0F512C",
"u  c #13285F01526F",
"i  c #1FEC57884FCD",
"p  c #230B56B9501A",
"a  c #237A57365093",
"s  c #1FF558435068",
"d  c #2489585E51AF",
"f  c #28635DC256AA",
"g  c #163962F8561E",
"h  c #114B660857C7",
"j  c #114C665C580C",
"k  c #137766C858F7",
"l  c #117D6AF15BD6",
"z  c #11866B3C5C16",
"x  c #11A26B205C05",
"c  c #13A86AB95C3B",
"v  c #160C6B4D5D5C",
"b  c #11376E465E85",
"n  c #11C86E275E88",
"m  c #119D6EAB5EEA",
"M  c #12876F685FAF",
"N  c #18B46C455E7C",
"B  c #162F6F4160A1",
"V  c #117A712E60F5",
"C  c #11CC717D6144",
"Z  c #119D722F61CA",
"A  c #12FF72D76297",
"S  c #128E73AE632E",
"D  c #12F9735F6311",
"F  c #1477717E61FC",
"G  c #142871F86254",
"H  c #155372BA6326",
"J  c #11E475BC64C9",
"K  c #131775D36519",
"L  c #12DA7608652D",
"P  c #171675F565DA",
"I  c #18E874686536",
"U  c #1A9275076600",
"Y  c #1B8B77DB686C",
"T  c #17457B166A13",
"R  c #1915782667FF",
"E  c #19367ACD6A32",
"W  c #19427B686AB3",
"Q  c #3D1473696BCA",
"!  c #2711810471E6",
"~  c #25B282A072E5",
"^  c #248C844273ED",
"/  c #249B853874BA",
"(  c #34598D997E56",
")  c #41B583D9797A",
"_  c #482C865A7CBC",
"`  c #397091658256",
"'  c #397E95D585F9",
"]  c #462A972B8994",
"[  c #40B69AAB8B38",
"{  c #40979B328B9D",
"}  c #42B79CA38D2B",
"|  c #509492F8884E",
" . c #4CE6A185930B",
".. c #4C0DA3C194A2",
"X. c #5027A15B9390",
"o. c #620FA1FB9798",
"O. c #6003A27A9795",
"+. c #7DE1C291B6C9",
"@. c #8275C87DBC53",
"#. c #88DFCFFAC37D",
"$. c #8DBBD678C992",
"%. c #8FBDD913CC03",
"&. c #9032D9A9CC90",
"*. c None",
/* pixels */
"*.*.*.*.*.*.*.*.*.*.*.*.*.*.*.*.*.*.*.*.*.*.*.*.*.*.*.*.*.*.*.*.",
"*.*.*.*.*.*.*.*.*.*.*.*.*.*.*.*.*.*.*.*.*.*.*.*.*.*.*.*.*.*.*.*.",
"*.*.*.*.*.*.*.*.*.*.*.*.*.*.*.*.*.*.*.*.*.*.*.*.*.*.*.*.*.*.*.*.",
"*.*.*.*.*.*.*.*.*.*.*.*.*.*.*.*.*.*.*.*.*.*.*.*.*.*.*.*.*.*.*.*.",
"*.*.*.*.*.*.*.*.*.*.*.*.*.*.*.*.*.*.*.*.*.*.*.*.*.*.*.*.*.*.*.*.",
"*.*.*.*.*.*.*.*.*.*.*.*.*.*.*.*.*.*.*.*.*.*.*.*.*.*.*.*.*.*.*.*.",
"*.*.*.*.*.*.*.*.*.*.*.*.*.*.*.*.*.*.*.*.*.*.*.*.*.*.*.*.*.*.*.*.",
"*.*.*.*.*.*.*.*.*.*.*.*.*.*.*.*.*.*.*.*.*.*.*.*.*.*.*.*.*.*.*.*.",
"*.*.*.*.*.*.*.*.*.*.*.*.*.*.*.*.*.*.*.*.*.*.*.*.*.*.*.*.*.*.*.*.",
"*.*.*.*.*.*.*.*.*.*.*.*.*.*.*.*.*.*.*.*.*.*.*.*.*.*.*.*.*.*.*.*.",
"*.*.*.*.*.*.*.*.*.*.*.*.*.*.*.*.*.*.*.*.*.*.*.*.*.*.*.*.*.*.*.*.",
"*.*.*.*.*.*.*.*.*.*.*.*.&.*.*.*.*.*.*.*.*.*.*.*.*.*.*.*.*.*.*.*.",
"*.*.*.*.*.*.*.*.*.*.%.*.#.*._ f p a *.*.*.*.*.*.*.*.*.*.*.*.*.*.",
"*.*.*.*.*.*.*.*.*.*.*.@.o.| ! Y H B s ; *.*.*.*.*.*.*.*.*.*.*.*.",
"*.*.*.*.*.*.*.*.*.$.+.O.X. .[ ' T J c 7 - *.*.*.*.*.*.*.*.*.*.*.",
"*.*.*.*.*.*.*.*.*.*.Q ] ..} ^ R L m r j 5 % *.*.*.*.*.*.*.*.*.*.",
"*.*.*.*.*.*.*.*.*.*.) ~ { / ( g b y j 9 < = *.*.*.*.*.*.*.*.*.*.",
"*.*.*.*.*.*.*.*.*.d U W ` E P A K x w 3 1 > & *.*.*.*.*.*.*.*.*.",
"*.*.*.*.*.*.*.*.*.a G S g M t D I u h 6 1 , & *.*.*.*.*.*.*.*.*.",
"*.*.*.*.*.*.*.*.*.a F Z V C C n u N 0 2 1 , & *.*.*.*.*.*.*.*.*.",
"*.*.*.*.*.*.*.*.*.a v y l y z r j 0 q 4 1 > & *.*.*.*.*.*.*.*.*.",
"*.*.*.*.*.*.*.*.*.*.i k e j w h 8 2 4 2 < - *.*.*.*.*.*.*.*.*.*.",
"*.*.*.*.*.*.*.*.*.*.; 7 j 9 3 6 2 1 1 1 : @ *.*.*.*.*.*.*.*.*.*.",
"*.*.*.*.*.*.*.*.*.*.*.- 5 < 1 1 1 1 < > + X     *.*.*.*.*.*.*.*.",
"*.*.*.*.*.*.*.*.*.*.*.*.% = > , , : $ O X           *.*.*.*.*.*.",
"*.*.*.*.*.*.*.*.*.*.*.*.*.*.& & * # o .           *.*.*.*.*.*.*.",
"*.*.*.*.*.*.*.*.*.*.*.*.*.*.*.*.*.*.*.*.*.*.*.*.*.*.*.*.*.*.*.*.",
"*.*.*.*.*.*.*.*.*.*.*.*.*.*.*.*.*.*.*.*.*.*.*.*.*.*.*.*.*.*.*.*.",
"*.*.*.*.*.*.*.*.*.*.*.*.*.*.*.*.*.*.*.*.*.*.*.*.*.*.*.*.*.*.*.*.",
"*.*.*.*.*.*.*.*.*.*.*.*.*.*.*.*.*.*.*.*.*.*.*.*.*.*.*.*.*.*.*.*.",
"*.*.*.*.*.*.*.*.*.*.*.*.*.*.*.*.*.*.*.*.*.*.*.*.*.*.*.*.*.*.*.*.",
"*.*.*.*.*.*.*.*.*.*.*.*.*.*.*.*.*.*.*.*.*.*.*.*.*.*.*.*.*.*.*.*."
};
