/* XPM */
static char *result[] = {
/* columns rows colors chars-per-pixel */
"32 32 96 2 ",
"   c #161716231621",
".  c #16611A8719E5",
"X  c #16691E391D04",
"o  c #168020061E8D",
"O  c #16E237BF32A1",
"+  c #162339FF345C",
"@  c #16FC3C03363F",
"#  c #16F13CAC36CB",
"$  c #16353DDE37A3",
"%  c #171640AD3A36",
"&  c #1707411E3A8F",
"*  c #1704416E3AD2",
"=  c #1638427A3B87",
"-  c #162E430D3BFD",
";  c #18CF437C3D0E",
":  c #11C349A94093",
">  c #11B84A51411F",
",  c #11084B9F4210",
"<  c #10E74C27427B",
"1  c #100E4D554349",
"2  c #10194E2643F7",
"3  c #11ED4E454467",
"4  c #104051264674",
"5  c #1257526347E3",
"6  c #1070551A49BB",
"7  c #1061553149CB",
"8  c #109E58C44CC5",
"9  c #10AC5CC8500F",
"0  c #10C55D6F509F",
"q  c #10D05E4C5159",
"w  c #11FE5E235178",
"e  c #1FEC57884FCD",
"r  c #231B56D15031",
"t  c #237957285089",
"y  c #1FF558435068",
"u  c #250859145259",
"i  c #28D75E1C5708",
"p  c #113C660057BD",
"a  c #17C364235764",
"s  c #114F666C5819",
"d  c #137766C858F7",
"f  c #117D6AF15BD6",
"g  c #11866B3C5C16",
"h  c #11A26B205C05",
"j  c #13A86AB95C3B",
"k  c #160C6B4D5D5C",
"l  c #11756E755EB9",
"z  c #11916EA85EE6",
"x  c #11C86E275E88",
"c  c #11AC6EB65EF7",
"v  c #16406F4F60AF",
"b  c #11D2717D6145",
"n  c #11AD723C61D7",
"m  c #118E72E06259",
"M  c #135373AA6351",
"N  c #145671A9621A",
"B  c #152E72DC6338",
"V  c #150373086354",
"C  c #11E475486465",
"Z  c #118D76A1656C",
"A  c #123D76016512",
"S  c #135C7675659D",
"D  c #14257440640B",
"F  c #144476B46614",
"G  c #171776A36669",
"H  c #18E874676536",
"J  c #18B177326732",
"K  c #17257B136A0C",
"L  c #1A04781C6872",
"P  c #32DB6A1A6270",
"I  c #1FCC7B8B6C23",
"U  c #3BA1719B6A16",
"Y  c #261D804A7123",
"T  c #24E882087246",
"R  c #23E183CE7370",
"E  c #23F084C4743E",
"W  c #353E8E6B7F2D",
"Q  c #42C385267AB5",
"!  c #4971879C7DF9",
"~  c #49C088267E76",
"^  c #3BB096E78742",
"/  c #3B94977187AB",
"(  c #46FF97FB8A65",
")  c #43AB9D908E19",
"_  c #50D8933C8891",
"`  c #4E21A2AD9435",
"'  c #4D63A50395E7",
"]  c #50F3A227945B",
"[  c #6270A26A9803",
"{  c #607FA3009818",
"}  c #7BB8BFD9B438",
"|  c #7EEEC2F1B74E",
" . c #8280C88ABC5F",
".. c #87EDCEBAC251",
"X. c #8FA5D8F5CBE6",
"o. c None",
/* pixels */
"o.o.o.o.o.o.o.o.o.o.o.o.o.o.o.o.o.o.o.o.o.o.o.o.o.o.o.o.o.o.o.o.",
"o.o.o.o.o.o.o.o.o.o.o.o.o.o.o.o.o.o.o.o.o.o.o.o.o.o.o.o.o.o.o.o.",
"o.o.o.o.o.o.o.o.o.o.o.o.o.o.o.o.o.o.o.o.o.o.o.o.o.o.o.o.o.o.o.o.",
"o.o.o.o.o.o.o.o.o.o.o.o.o.o.o.o.o.o.o.o.o.o.o.o.o.o.o.o.o.o.o.o.",
"o.o.o.o.o.o.o.o.o.o.o.o.o.o.o.o.o.o.o.o.o.o.o.o.o.o.o.o.o.o.o.o.",
"o.o.o.o.o.o.o.o.o.o.o.o.o.o.o.o.o.o.o.o.o.o.o.o.o.o.o.o.o.o.o.o.",
"o.o.o.o.o.o.o.o.o.o.o.o.o.o.o.o.o.o.o.o.o.o.o.o.o.o.o.o.o.o.o.o.",
"o.o.o.o.o.o.o.o.o.o.o.o.o.o.o.o.o.o.o.o.o.o.o.o.o.o.o.o.o.o.o.o.",
"o.o.o.o.o.o.o.o.o.o.o.o.o.o.o.o.o.o.o.o.o.o.o.o.o.o.o.o.o.o.o.o.",
"o.o.o.o.o.o.o.o.o.o.o.o.o.o.o.o.o.o.o.o.o.o.o.o.o.o.o.o.o.o.o.o.",
"o.o.o.o.o.o.o.o.o.o.o.o.o.o.o.o.o.o.o.o.o.o.o.o.o.o.o.o.o.o.o.o.",
"o.o.o.o.o.o.o.o.o.X.o.o.o.o.o.| o.o.o.o.o.o.o.o.o.o.o.o.o.o.o.o.",
"o.o.o.o.o.o.o.o.o.o.X.o...o.~ P u t o.o.o.o.o.o.o.o.o.o.o.o.o.o.",
"o.o.o.o.o.o.o.o.o.o.o. .[ _ Y B N v y ; o.o.o.o.o.o.o.o.o.o.o.o.",
"o.o.o.o.o.o.o.o.o.o.} { ] ` ^ K Z A j 5 - o.o.o.o.o.o.o.o.o.o.o.",
"o.o.o.o.o.o.o.o.o.o.U ( ' ) R M C c 0 s 3 % o.o.o.o.o.o.o.o.o.o.",
"o.o.o.o.o.o.o.o.o.o.Q T / E W a l q s 7 < = o.o.o.o.o.o.o.o.o.o.",
"o.o.o.o.o.o.o.o.o.! I S G S J L F h 8 2 1 > & o.o.o.o.o.o.o.o.o.",
"o.o.o.o.o.o.o.o.o.i V m q z q D H w p 4 1 , & o.o.o.o.o.o.o.o.o.",
"o.o.o.o.o.o.o.o.o.r N n b b b x w s 6 1 1 , & o.o.o.o.o.o.o.o.o.",
"o.o.o.o.o.o.o.o.o.t k q f q g 0 s 6 1 1 1 > & o.o.o.o.o.o.o.o.o.",
"o.o.o.o.o.o.o.o.o.o.e d 9 s 8 p 6 1 1 1 < - o.o.o.o.o.o.o.o.o.o.",
"o.o.o.o.o.o.o.o.o.o.; 5 s 7 2 4 1 1 1 1 : @ o.o.o.o.o.o.o.o.o.o.",
"o.o.o.o.o.o.o.o.o.o.o.- 3 < 1 1 1 1 < > + X     o.o.o.o.o.o.o.o.",
"o.o.o.o.o.o.o.o.o.o.o.o.% = > , , : $ O X           o.o.o.o.o.o.",
"o.o.o.o.o.o.o.o.o.o.o.o.o.o.& & * # o .           o.o.o.o.o.o.o.",
"o.o.o.o.o.o.o.o.o.o.o.o.o.o.o.o.o.o.o.o.o.o.o.o.o.o.o.o.o.o.o.o.",
"o.o.o.o.o.o.o.o.o.o.o.o.o.o.o.o.o.o.o.o.o.o.o.o.o.o.o.o.o.o.o.o.",
"o.o.o.o.o.o.o.o.o.o.o.o.o.o.o.o.o.o.o.o.o.o.o.o.o.o.o.o.o.o.o.o.",
"o.o.o.o.o.o.o.o.o.o.o.o.o.o.o.o.o.o.o.o.o.o.o.o.o.o.o.o.o.o.o.o.",
"o.o.o.o.o.o.o.o.o.o.o.o.o.o.o.o.o.o.o.o.o.o.o.o.o.o.o.o.o.o.o.o.",
"o.o.o.o.o.o.o.o.o.o.o.o.o.o.o.o.o.o.o.o.o.o.o.o.o.o.o.o.o.o.o.o."
};
