/* XPM */
static char *d8228cb5869d4dcbd7134de46ebd47c1De6MQnOi1pUH2tf6[] = {
/* columns rows colors chars-per-pixel */
"32 32 73 1 ",
"  c None",
". c black",
"X c #0D0904",
"o c #0E0D04",
"O c #170E0B",
"+ c #20130E",
"@ c #271A0D",
"# c #2E1E10",
"$ c #29280C",
"% c #33310F",
"& c #302010",
"* c #342312",
"= c #332517",
"- c #352414",
"; c #352811",
": c #362718",
"> c #3D221E",
", c #363110",
"< c #472E1B",
"1 c #493121",
"2 c #493323",
"3 c #5C3E21",
"4 c #613A29",
"5 c #514219",
"6 c #535018",
"7 c #5D4125",
"8 c #5D4227",
"9 c #6E432D",
"0 c #6E442F",
"q c #764F28",
"w c #7E542B",
"e c #704835",
"r c #7C7824",
"t c #835C2C",
"y c #895931",
"u c #8E5839",
"i c #82603D",
"p c #9D6935",
"a c #9E6D3B",
"s c #9F7734",
"d c #A36D38",
"f c #A96D3F",
"g c #AA733C",
"h c #AB753F",
"j c #B0743E",
"k c #976242",
"l c #A17447",
"z c #AC7741",
"x c #A8784A",
"c c #AE7D4B",
"v c #B17744",
"b c #A97C50",
"n c #848026",
"m c #898028",
"M c #8A8528",
"N c #A39231",
"B c #BF814B",
"V c #B08151",
"C c #B68356",
"Z c #C58748",
"A c #D3914F",
"S c #D59D4B",
"D c #C88E54",
"F c #C38B5A",
"G c #CA925A",
"H c #D49555",
"J c #D0965D",
"K c #D69C58",
"L c #D79B5E",
"P c #D8B645",
"I c #D79C60",
"U c #D89F64",
"Y c #D9A066",
/* pixels */
"                                ",
"                                ",
"                                ",
"                                ",
"                                ",
"                                ",
"                                ",
"                                ",
"                                ",
"                                ",
"                                ",
"                                ",
"              ......            ",
"              O+#-:=            ",
"            .O>4yali=.          ",
"            &<9ufvxi=.          ",
"          .&wdjfu01=            ",
"          %5thZBke1=            ",
"      ...%nm57cJFCbi=...        ",
"      %$o$rm57VYYYIl:o$%        ",
"    .%nr$o$5tzGYYIHa-$rn%.      ",
"    %6MM6$o@qhDLLKSs;$rn%.      ",
"  .%nM66Mr$X@3hAASPN,o$%        ",
"  .%nr$$rr$..@qppsNn%...        ",
"    %$oo$$o..X@**;,%            ",
"    ................            ",
"                                ",
"                                ",
"                                ",
"                                ",
"                                ",
"                                "
};
