/* XPM */
static char *result[] = {
/* columns rows colors chars-per-pixel */
"32 32 113 2 ",
"   c #010101",
".  c #0D0301",
"X  c #0B0B0B",
"o  c #120701",
"O  c #190202",
"+  c #1C0B03",
"@  c #100F10",
"#  c #151414",
"$  c #1B1B1B",
"%  c #270202",
"&  c #330404",
"*  c #390C0C",
"=  c #2A1407",
"-  c #242424",
";  c #2A2A2A",
":  c #363636",
">  c #3C3C3C",
",  c #410404",
"<  c #4A0505",
"1  c #430D0D",
"2  c #560404",
"3  c #4C1010",
"4  c #6D0606",
"5  c #750707",
"6  c #780708",
"7  c #750B0B",
"8  c #7C0A0A",
"9  c #6D1313",
"0  c #43220E",
"q  c #48250E",
"w  c #572B11",
"e  c #5C2F13",
"r  c #693617",
"t  c #743C1A",
"y  c #783D1A",
"u  c #772020",
"i  c #782222",
"p  c #7D2C2C",
"a  c #7D401B",
"s  c #4C4C4C",
"d  c #565656",
"f  c #5B5B5B",
"g  c #646464",
"h  c #6C6C6C",
"j  c gray46",
"k  c #7E7E7E",
"l  c #820E0E",
"z  c #8E0C0C",
"x  c #930D0D",
"c  c #850F10",
"v  c #960F10",
"b  c #8B1212",
"n  c #8A1B1B",
"m  c #951212",
"M  c #9C1212",
"N  c #951C1C",
"B  c #9B1A1A",
"V  c #A31616",
"C  c #A51B1B",
"Z  c #AB1A1A",
"A  c #B31E1E",
"S  c #822121",
"D  c #902222",
"F  c #803131",
"G  c #B32121",
"H  c #BC2222",
"J  c #C42626",
"K  c #C62728",
"L  c #C72828",
"P  c #CB292A",
"I  c #D22C2C",
"U  c #CE3535",
"Y  c #D13232",
"T  c #D33E3E",
"R  c #DA3D3D",
"E  c #86451E",
"W  c #894040",
"Q  c #945252",
"!  c #9E7474",
"~  c #A87373",
"^  c #C44141",
"/  c #DA4E4E",
"(  c #DD5050",
")  c #E14D4D",
"_  c #E15252",
"`  c #E55B5B",
"'  c #D76969",
"]  c #D67575",
"[  c #EC7373",
"{  c #F07C7C",
"}  c #828181",
"|  c #8B8B8B",
" . c #989797",
".. c gray60",
"X. c #A4A4A4",
"o. c #AEAEAE",
"O. c #B0AFAF",
"+. c #B3B2B3",
"@. c #BBBABA",
"#. c #D49292",
"$. c #E09F9F",
"%. c #C8A6A6",
"&. c #D1B5B5",
"*. c #E7BCBC",
"=. c #C4C3C3",
"-. c #CDCDCD",
";. c #D3D3D3",
":. c #DDDDDD",
">. c #EFCFCF",
",. c #E1D0D0",
"<. c #E2E2E2",
"1. c #FFFFFF",
"2. c None",
/* pixels */
"2.2.2.2.2.2.2.2.2.2.2.2.2.2.2.2.2.2.2.2.2.2.2.2.2.2.2.2.2.2.2.2.",
"2.2.2.2.2.2.2.2.2.2.2.2.2.2.2.2.2.2.2.2.2.2.2.2.2.2.2.2.2.2.2.2.",
"2.2.2.2.2.2.2.2.2.2.2.2.2.2.2.2.2.2.2.2.2.2.2.2.2.2.2.2.2.2.2.2.",
"2.2.2.2.2.2.2.2.2.2.2.2.2.2.2.2.2.2.2.2.2.2.2.2.2.2.2.2.2.2.2.2.",
"2.2.2.2.2.2.2.2.2.2.2.2.  ;.|   X -.X 2.2.2.2.2.2.2.2.2.2.2.2.2.",
"2.2.2.2.2.2.2.2.2.  - $ k   * 9 3 . > $ : X.2.2.2.2.2.2.2.2.2.2.",
"2.2.2.2.2.2.2.2.2.:.g n ) _ _ ( / / / U   @.  2.2.2.2.2.2.2.2.2.",
"2.2.2.2.2.2.2.  s   ` { ( R I P P P J J J N X     2.2.2.2.2.2.2.",
"2.2.2.2.2.2.j <.O [ _ I I I P P P J J D S H H   +.  2.2.2.2.2.2.",
"2.2.2.2.2.2.d   _ _ I I P P P P ' 1.1.1.1.p A N $ 0 2.2.2.2.2.2.",
"2.2.2.2.2.2.# R _ I I I P K J 1.1.1.1.G $.1.i A     2.2.2.2.2.2.",
"2.2.2.2.X <.1 ( I P P P P K 1.1.1.1.H 1.1.1.C Z b   O.  2.2.2.2.",
"2.2.2.2.X f I ( I P P J J 1.1.1.1.A >.1.1.i Z Z m   o.r 2.2.2.2.",
"2.2.2.2.    Y P P L J J 1.1.1.1.u A *.1.Q Z Z V V & # E 2.2.2.2.",
"2.2.2.2.    T P K J J ] 1.1.1.,.A A Z Z Z V V V M 8 d + 2.2.2.2.",
"2.2.2.  <.  T L J J H 1.1.1.1.C A Z Z Z V V V M M 8 : g 2.2.2.2.",
"2.2.2.  <.  L J J H ^ 1.1.1.~ A Z Z Z V 1.u M M x 6 d X E 2.2.2.",
"2.2.2.2.    C H H H 1.1.1.1.N Z V V V 1.u M m v 8 < ; E 2.2.2.2.",
"2.2.2.2.    B H A A 1.1.1.1.V Z V V 1.W M M x x 6   j 2.2.2.2.2.",
"2.2.2.2.; ;.. B H A 1.1.1.&.V V V 1.%.m M x x 6 6   o.  2.2.2.2.",
"2.2.2.2.o f   m V A 1.1.1.1.#.1.1.&.m m x z z 5 % o.  E 2.2.2.2.",
"2.2.2.2.2.e h   m b 1.1.1.1.1.1.F v x x z 6 5 5 $ = 2.2.2.2.2.2.",
"2.2.2.2.2.2.X.X.  b b ! 1.1.i n m x x 5 5 5 5   o.o 2.2.2.2.2.2.",
"2.2.2.2.2.2.- ;. .  c l l 8 8 8 6 6 5 5 5 5 X o.o.w 2.2.2.2.2.2.",
"2.2.2.2.2.2.2.E . ;.  7 8 8 8 6 6 6 5 5 & | X E E t 2.2.2.2.2.2.",
"2.2.2.2.2.2.2.2.2.o.-...X . 2 5 4 & # g +.+.  2.2.2.2.2.2.2.2.2.",
"2.2.2.2.2.2.2.2.2.q q y   =.=.} @.@.+.t y = E 2.2.2.2.2.2.2.2.2.",
"2.2.2.2.2.2.2.2.2.2.2.2.2.@   E e d o t 2.2.2.2.2.2.2.2.2.2.2.2.",
"2.2.2.2.2.2.2.2.2.2.2.2.2.2.w 2.2.2.2.2.2.2.2.2.2.2.2.2.2.2.2.2.",
"2.2.2.2.2.2.2.2.2.2.2.2.2.2.2.2.2.2.2.2.2.2.2.2.2.2.2.2.2.2.2.2.",
"2.2.2.2.2.2.2.2.2.2.2.2.2.2.2.2.2.2.2.2.2.2.2.2.2.2.2.2.2.2.2.2.",
"2.2.2.2.2.2.2.2.2.2.2.2.2.2.2.2.2.2.2.2.2.2.2.2.2.2.2.2.2.2.2.2."
};
