/* XPM */
static char *result[] = {
/* columns rows colors chars-per-pixel */
"32 32 118 2 ",
"   c #C89514",
".  c #C89614",
"X  c #CA9715",
"o  c #CB9915",
"O  c #CC9915",
"+  c #CF9B15",
"@  c #CE9C15",
"#  c #D09D15",
"$  c #D09E18",
"%  c #D4A016",
"&  c #D6A216",
"*  c #D7A316",
"=  c #D8A416",
"-  c #DDA717",
";  c #DCA817",
":  c #DFAA16",
">  c #D2A018",
",  c #D3A31E",
"<  c #D3A31F",
"1  c #D9A61B",
"2  c #DAA71B",
"3  c #DBA81B",
"4  c #DDAA19",
"5  c #E0AB17",
"6  c #E0AB18",
"7  c #E3AE18",
"8  c #E4AF18",
"9  c #E5AF18",
"0  c #E3B018",
"q  c #E4B019",
"w  c #E5B019",
"e  c #E5B01A",
"r  c #E5B11A",
"t  c #E6B11B",
"y  c #E6B21B",
"u  c #E3B11E",
"i  c #E6B21C",
"p  c #E6B31D",
"a  c #E7B41D",
"s  c #E7B41E",
"d  c #E7B51F",
"f  c #E8B51F",
"g  c #E8B620",
"h  c #E9B620",
"j  c #E9B621",
"k  c #E9B721",
"l  c #EAB823",
"z  c #EAB923",
"x  c #EAB924",
"c  c #EBBA25",
"v  c #ECBB26",
"b  c #ECBC27",
"n  c #E3B62B",
"m  c #E3B62C",
"M  c #EDBD28",
"N  c #EDBD29",
"B  c #EDBE29",
"V  c #EEBF2A",
"C  c #EEBF2B",
"Z  c #E5B931",
"A  c #E5BA31",
"S  c #EABF32",
"D  c #EFC02C",
"F  c #EFC12D",
"G  c #F0C22E",
"H  c #F0C22F",
"J  c #F1C32F",
"K  c #EEC030",
"L  c #EEC130",
"P  c #F1C330",
"I  c #F1C430",
"U  c #F2C431",
"Y  c #F4C835",
"T  c #F4C836",
"R  c #F4C936",
"E  c #F5C936",
"W  c #F3C93A",
"Q  c #F6CB38",
"!  c #F7CC3A",
"~  c #F7CD3B",
"^  c #F7CE3C",
"/  c #F5CC3E",
"(  c #F6CC3E",
")  c #F8CE3C",
"_  c #F8CF3D",
"`  c #F9D03E",
"'  c #F9D03F",
"]  c #F9D13F",
"[  c #FAD13F",
"{  c #F8D041",
"}  c #FAD140",
"|  c #FAD241",
" . c #FBD341",
".. c #FBD342",
"X. c #FBD343",
"o. c #FBD443",
"O. c #FCD443",
"+. c #FBD444",
"@. c #FBD445",
"#. c #FBD545",
"$. c #FCD444",
"%. c #FCD544",
"&. c #FCD545",
"*. c #FDD545",
"=. c #FDD645",
"-. c #FDD746",
";. c #FDD647",
":. c #FED647",
">. c #FED747",
",. c #FED847",
"<. c #FED848",
"1. c #FFD848",
"2. c #FFD948",
"3. c #FFD849",
"4. c #FFD949",
"5. c #FFDA48",
"6. c #FFDA49",
"7. c None",
/* pixels */
"7.7.7.7.7.7.7.7.7.7.7.7.@ 1 K ^ ..:.4.6.7.7.7.7.7.7.7.7.7.7.7.7.",
"7.7.7.7.7.7.7.7.7.7.* > A ;.4.4.4.4.4.4.4.4.7.7.7.7.7.7.7.7.7.7.",
"7.7.7.7.7.7.7.7.7 8 g X.4.4.4.4.4.4.4.4.4.4.4.4.7.7.7.7.7.7.7.7.",
"7.7.7.7.7.7.7..   , @.4.4.4.4.%.) ! [ <.4.4.4.4.6.7.7.7.7.7.7.7.",
"7.7.7.7.7.7.: 5 u &.4.4.4.~ z 8 8 8 8 y G *.4.4.4.6.7.7.7.7.7.7.",
"7.7.7.7.7.7.8 8 [ 4.4.<.D 8 8 8 8 8 8 8 8 p _ 4.4.4.7.7.7.7.7.7.",
"7.7.7.7.7.o O n 4.4.1.v 8 8 8 8 t ) j 8 8 8 w ~ 4.4.4.7.7.7.7.7.",
"7.7.7.7.- ; 4 +.4.4.H 8 8 8 8 8 x 4.D 8 8 8 8 y o.4.4.7.7.7.7.7.",
"7.7.7.7.8 8 D 4.4.' 8 8 8 8 8 r U 4.} } G 8 8 8 c 4.4.4.7.7.7.7.",
"7.7.7.7.# # / 4.4.c 8 8 8 8 v =.4.4.4.4.H 8 8 8 8 ) 4.4.7.7.7.7.",
"7.7.7.= = 3 4.4.| 8 8 8 8 l 4.o.J b k y 8 8 8 8 8 b 4.4.5.7.7.7.",
"7.7.7.7 8 N 4.4.I 8 8 8 8 ` >.d 8 8 8 8 8 8 8 8 8 w -.4.3.7.7.7.",
"7.7.7.# # S 4.4.z 8 8 8 w <.Q 8 8 8 8 8 8 8 8 8 8 8 ~ 4.4.7.7.7.",
"7.7.7.= = W 4.4.r 8 8 8 y 4.T 8 8 8 8 8 8 8 8 8 8 8 P 4.4.7.7.7.",
"7.7.7.8 8 ' 4.%.8 8 8 8 8 } -.s 8 8 8 8 8 8 8 8 8 8 C 4.4.7.7.7.",
"7.7.7.% % { 4. .8 8 8 8 8 M 4.=.) ' ..` I 8 8 8 8 8 M 4.4.7.7.7.",
"7.7.7.% % { 4. .8 8 8 8 8 8 V =.4.4.&.<.4.Y 8 8 8 8 M 4.4.7.7.7.",
"7.7.7.8 8 ' 4.%.8 8 8 8 8 8 8 q p e 8 f } 4.k 8 8 8 C 4.4.7.7.7.",
"7.7.7.= = W 4.4.r 8 8 8 8 8 8 8 8 8 8 8 M 4.D 8 8 8 P 4.4.7.7.7.",
"7.7.7.# # S 4.4.z 8 8 8 8 8 8 8 8 8 8 8 v 4.D 8 8 8 ~ 4.4.7.7.7.",
"7.7.7.7 8 B 4.4.I 8 8 8 8 8 8 8 8 8 8 8 R 4.x 8 8 w -.4.4.7.7.7.",
"7.7.7.= = 3 4.4.| 8 8 8 8 8 8 8 8 w h Y 4.! 8 8 8 b 4.4.5.7.7.7.",
"7.7.7.7.# # ( 4.4.c 8 8 8 8 a _ O.<.4.4._ i 8 8 8 ) 4.4.7.7.7.7.",
"7.7.7.7.9 8 D 4.4.` 8 8 8 8 c >.*.4.} N r 8 8 8 c 4.4.4.7.7.7.7.",
"7.7.7.7.- ; 4 +.4.4.H 8 8 8 8 8 s 4.E 8 8 8 8 y o.4.4.7.7.7.7.7.",
"7.7.7.7.7.o O m 4.4.1.v 8 8 8 8 t %.F 8 8 8 w ~ 4.4.4.7.7.7.7.7.",
"7.7.7.7.7.7.8 8 } 4.4.,.D 8 8 8 8 8 8 8 8 p _ 4.4.4.7.7.7.7.7.7.",
"7.7.7.7.7.7.6 5 u &.4.4.4.~ z 8 8 8 8 y G *.4.4.4.6.7.7.7.7.7.7.",
"7.7.7.7.7.7.7.X   < #.4.4.4.4.%.) ! ] <.4.4.4.4.2.7.7.7.7.7.7.7.",
"7.7.7.7.7.7.7.7.0 8 g X.4.4.4.4.4.4.4.4.4.4.4.4.7.7.7.7.7.7.7.7.",
"7.7.7.7.7.7.7.7.7.7.& $ Z ;.4.4.4.4.4.4.4.4.7.7.7.7.7.7.7.7.7.7.",
"7.7.7.7.7.7.7.7.7.7.7.7.+ 2 L ) ..$.3.4.7.7.7.7.7.7.7.7.7.7.7.7."
};
