/* XPM */
static char *result[] = {
/* columns rows colors chars-per-pixel */
"32 32 43 1 ",
"  c #875132",
". c #9E5F3B",
"X c #9F603B",
"o c #A1613C",
"O c #A3623D",
"+ c #A4633D",
"@ c #A7653F",
"# c #A8653F",
"$ c #A5683B",
"% c #E85E2C",
"& c #E8712C",
"* c #BA7045",
"= c #C1AA2C",
"- c #CCB130",
"; c #D3B831",
": c #D4B931",
"> c #D6BB32",
", c #C9CF1E",
"< c #CED41F",
"1 c #DAE021",
"2 c #E2E822",
"3 c #E6ED23",
"4 c #E7EE23",
"5 c #ECF223",
"6 c #EBF224",
"7 c #EBF225",
"8 c #E8F22B",
"9 c #F0F624",
"0 c #F1F724",
"q c #F1F824",
"w c #F7FE25",
"e c #F8FF25",
"r c #ADE240",
"t c #A135E8",
"y c #E83ECE",
"u c #E835D6",
"i c #AC50CC",
"p c #1CE8A4",
"a c #E8C7CA",
"s c #E8C5D2",
"d c #E9C5D3",
"f c #FFD9E7",
"g c None",
/* pixels */
"ggo*gggggggggggggggggggggggggggg",
"gggo*ggggggggggggggggggggggggggg",
"ggggoggggggggggggggggggggggggggg",
"ggggo*gggogggggggggggggggggggggg",
"ggggg+oo*ggggggggggggggggggggggg",
"gggggo**gggggggggggggggggggggggg",
"ggo**gfssggggggggggggggggggggggg",
"gg*gggfssggggggggggggggggggggggg",
"ggggggffssgggggggggggggggggggggg",
"gggggggfsssgggg6<g666euggggggggg",
"ggggggggfssd8q6466r66669647ggggg",
"ggggggg36sss666666666603e<666ggg",
"ggggggg<psssa,66366<2666u06631**",
"gggggg660666666666e66,666p6666**",
"gggggg6666<666666666166e66,063o*",
"ggg66916%%5666&66666e636e<66*oo*",
"gg636666&660w666ue6666p6666**oo*",
"g661ti,6666e61666666e66666*o*o  ",
"g<,066p66666y66663<666u66**o*o  ",
"g*>>>:>>;->>>>>=>>>>>->-Xo*o* o*",
"*oooooo*o#oooooo oooooo*  .o*oo*",
"*oooooo.o#o oooo oooooo* o.o*oo*",
"*o oooo*o#oooooo*oooooo*oo*o.oo*",
"*o oooo*.#eeeooo*oooooo*oo*o.oo*",
"*oooooo*.o6eeooo*oooooo*#o*o*oo*",
".o#oooo*.o6o$ooo*oo#ooo*#o*o*oo*",
".oo#oo*ooooooooooo# ooo*o#*o*ogg",
"*o##oo*oo###o ooooooooo*oo*o**gg",
"*oXXXo*oooo@@oooooooooo*oo*O*ggg",
"*o##oo*oo ooooooooooooo*oo*ggggg",
"*ooooo*oooooooooooooooo*oo*ggggg",
"*************************ggggggg"
};
