/* XPM */
static char *result[] = {
/* columns rows colors chars-per-pixel */
"32 32 24 1 ",
"  c #741596",
". c #751596",
"X c #741597",
"o c #7A1AA4",
"O c #8226A5",
"+ c #8E2CD0",
"@ c #A03BF8",
"# c #A13CFA",
"$ c #A13DFA",
"% c #A13CFB",
"& c #BA79D3",
"* c #B95EFC",
"= c #C874FE",
"- c #D78AFD",
"; c #D98CFF",
": c #D98DFF",
"> c #DA8CFF",
", c #DC94FF",
"< c #E1A3FF",
"1 c #E7B2FF",
"2 c #EDC1FF",
"3 c #EDC2FF",
"4 c #EEC2FF",
"5 c None",
/* pixels */
"55555555555555555 55555555555555",
"55555555555555555555555555555555",
"55555555555555555555555555555555",
"5555555555555555555;555555555555",
"555555555555555555; ;55555555555",
"5555555555555555555;555555555555",
"55555555555555555555555555555555",
"55555555555;55555555555555555555",
"5555555555; ;55 ## ##5555;;55555",
"55555555555;55########5555555555",
"5555555555555#;;;;;;;; 555555555",
" 55555555555# ;;3 ;;;3##55555555",
"55555555555##@5;:-2;;:###5555555",
"5555555555%##=4;;;311;=##%55.555",
"5555555555+##;3<:<&33;;*+#55X555",
"5555555555o#$;3353 34,,;O#555555",
"55555555 5##5533;353533;;#555555",
"5555555555##;3335533553 5 #55555",
"5555555555#;;5353555533335#55555",
"5555555555#;;55 55555335;;#55555",
"5555555555#;3555335 333;;;55555 ",
"5555555555#;;;33335335;;;#555555",
"555;555555##;;;33 335 ;;##555555",
"55> ;555555# ;;;3;;;;;###5555555",
"555;55555555##;;;;;;;; ##5555555",
"5555555555555##; 5;;;##555555555",
"555555555 5555# ## ###5555555555",
"5555555555555555####555555555555",
"55555555555555555555555555555555",
"55555555555555555555555555555555",
"55555555555555555555555555555555",
"555555555555555555555555 5555555"
};
