/* XPM */
static char *result[] = {
/* columns rows colors chars-per-pixel */
"32 32 3 1 ",
"  c #573200",
". c #5E3600",
"X c #6B3D00",
/* pixels */
"XXXXX  .. XX.XXXXXX.  XXXXXXXXXX",
"X..X. X..X. ..XX.X....XXX.XX..XX",
".. X  X.X..X..X..X  X  .  .....X",
"..  .  ...X.XXXX..XX X. XX    .X",
".X  .X X...XXXX...XXXX.X   ..XXX",
".. .X XXXX.....X.X .XX.XX...  X.",
"X.X . X   X  .X . X .X .X..X.XX.",
"X ..X.. X  X.X.X.X . XXX..X ..X.",
" .. ....    X ..X.XXX X XX. ..X.",
" X... . . X  X  ... .X. .X. ..X.",
".X.   X X  XX.XXX  . X. XXX ...X",
"XX. .   .. . XX..    .X X.. ...X",
"XX.. . X..X.XX .      X.X   ...X",
"X.  ..  .. X X.X..  . . ....X..X",
"X.  .X  X.. XXXX. ..X  X.  X...X",
"XX. .  XX. ..X. .X.XX XX . X...X",
"X..X.  . X.XX.XX X X ...   XXXXX",
"X.. X.X. XX . ..X.X .XXXX  X.X.X",
"XX... .XXXXXX..    .  XX . X.X.X",
"XX. .X. .X. ..  ..X...   . ..XXX",
"XX.XX.X..X    XX..XX .. X.XX..XX",
".XX .X.X XX.X  XX.X .X. XX X..XX",
"XXX.X.XXX .X.X . X ...XX X.XX.XX",
"XXX ..XX.XXX.. X    ..XXX .XXXXX",
"XX. ..... .X.X   X..X ..X  ..XXX",
".X. ..XX..X.XX X ...X   .  XXXXX",
"X.. X.... .X.X  X...X....   X..X",
"XXX .XX..   . .XX. .   .X..XX..X",
"XX. ..XXX   X  . .X...XXXX.....X",
"X.X.......XX.XXX...XXX...XXXXXXX",
"XX.XXXXXX....XXXXX XXXXXXX..X..X",
"XX.XXXXXXXX..XX..X..X.........XX"
};
