/* XPM */
static char *result[] = {
/* columns rows colors chars-per-pixel */
"32 32 190 2 ",
"   c #64564D",
".  c #6A5E53",
"X  c #665B52",
"o  c #6D6155",
"O  c #6E645D",
"+  c #736255",
"@  c #73655B",
"#  c #786659",
"$  c #76685E",
"%  c #7C6A5C",
"&  c #736B64",
"*  c #7B6C62",
"=  c #746E68",
"-  c #7A6E69",
";  c #7D7166",
":  c #7C746C",
">  c #7F7773",
",  c #7D7B76",
"<  c #81695B",
"1  c #816D61",
"2  c #807166",
"3  c #81756B",
"4  c #867D6F",
"5  c #927967",
"6  c #917E6C",
"7  c #837B73",
"8  c #8A7F70",
"9  c #837E7A",
"0  c #DCCB3E",
"q  c #F2D035",
"w  c #888177",
"e  c #86837D",
"r  c #8B857C",
"t  c #998774",
"y  c #998B76",
"u  c #928778",
"i  c #95887F",
"p  c #9C8D7C",
"a  c #938775",
"s  c #9F907E",
"d  c #969579",
"f  c #A4906D",
"g  c #A08E78",
"h  c #B28F7B",
"j  c #A3927C",
"k  c #C3997D",
"l  c #D6BB68",
"z  c #C7A877",
"x  c #D6BD7E",
"c  c #E6BF7F",
"v  c #E1C44D",
"b  c #F8DA4B",
"n  c #E8CC52",
"m  c #F9EA45",
"M  c #FEEF53",
"N  c #FDE85D",
"B  c #FFFB54",
"V  c #FFF65C",
"C  c #FFFE5D",
"Z  c #C4C46E",
"A  c #D8C076",
"S  c #F8DD6F",
"D  c #ECD778",
"F  c #F0D77B",
"G  c #F6D879",
"H  c #E5E566",
"J  c #F8E667",
"K  c #F4E265",
"L  c #FFF266",
"P  c #FEFE62",
"I  c #FDFA6C",
"U  c #EEE47A",
"Y  c #F7E77E",
"T  c #FEF477",
"R  c #FFFD73",
"E  c #FAF57C",
"W  c #8C8A84",
"Q  c #8A8784",
"!  c #938C81",
"~  c #958D87",
"^  c #9B9286",
"/  c #9A948D",
"(  c #9B9793",
")  c #9C9994",
"_  c #969E9E",
"`  c #9A9C9A",
"'  c #969591",
"]  c #A59485",
"[  c #AB9584",
"{  c #A4968A",
"}  c #A7998B",
"|  c #AC9B8E",
" . c #AD9884",
".. c #B79784",
"X. c #B59B8C",
"o. c #BA9D8C",
"O. c #B79982",
"+. c #A29B93",
"@. c #AC9D93",
"#. c #A49E9A",
"$. c #AD9F98",
"%. c #B29E92",
"&. c #9BA19F",
"*. c #BDA08E",
"=. c #BFAB85",
"-. c #ADA294",
";. c #A6A19D",
":. c #ADA39C",
">. c #B4A395",
",. c #BAA395",
"<. c #B3A59B",
"1. c #BDA799",
"2. c #BBAB9C",
"3. c #B2A89A",
"4. c #A19FA0",
"5. c #9CA2A2",
"6. c #A3A4A3",
"7. c #ABA6A3",
"8. c #A4A8A6",
"9. c #ADAAA6",
"0. c #A4ABAB",
"q. c #AAACAB",
"w. c #B3ACA4",
"e. c #BCADA2",
"r. c #B2AEAC",
"t. c #B9AEA9",
"y. c #ADB0AD",
"u. c #B4B0A7",
"i. c #BBB1A5",
"p. c #B4B2AD",
"a. c #BBB4AC",
"s. c #BDB8AF",
"d. c #ADB4B3",
"f. c #B4B4B2",
"g. c #BDB9B2",
"h. c #BCBDB9",
"j. c #BAB7B5",
"k. c #DFBF82",
"l. c #D9B78B",
"z. c #C1A593",
"x. c #C0AA97",
"c. c #C3AD9C",
"v. c #CBAA92",
"b. c #CCB394",
"n. c #C6B695",
"m. c #D3B498",
"M. c #C0AEA4",
"N. c #CBB5A4",
"B. c #CAB8A7",
"V. c #C3B5AB",
"C. c #C1B9AC",
"Z. c #CBBAAC",
"A. c #C4BCB4",
"S. c #CDBCB4",
"D. c #C2BDBA",
"F. c #BEC1BD",
"G. c #D7CA86",
"H. c #EBCA8C",
"J. c #EFD784",
"K. c #EFDA87",
"L. c #EAD58C",
"P. c #F6D487",
"I. c #EAC995",
"U. c #F2D692",
"Y. c #F8F080",
"T. c #CEC0B5",
"R. c #C4C2BA",
"E. c #CAC3BC",
"W. c #CBC9BE",
"Q. c #D4C6BD",
"!. c #C7C8C6",
"~. c #CBC9C3",
"^. c #CECECD",
"/. c #C0C2C1",
"(. c #D3CBC3",
"). c #DACDC1",
"_. c #CFD0CE",
"`. c #DCD3CC",
"'. c #D2D1CE",
"]. c #D9D7D6",
"[. c #DDDDDA",
"{. c #DDD9D5",
"}. c #E0DFDC",
"|. c #E1DCD6",
" X c #E7E0DC",
".X c #E2E5E4",
"XX c #E9E6E4",
"oX c #EEEEEE",
"OX c #FDFDFD",
"+X c None",
/* pixels */
"+X+X+X+X+X+X+X+X+X+X+X+X+X+X+X+X+X+X+X+X+X+X+X+X+X+X+X+X+X+X+X+X",
"+X+X+X+X+X+X+X+X+X+X+X+X+X+X.X2 1 +X+X+X+X+X+X+X+X+X+X+X+X+X+X+X",
"+X+X+X+X+X+X+X+X+X+X+X+X+X+X/ 9 7 ;.+X+X+X+X+X+X+X+X+X+X+X+X+X+X",
"+X+X+X+X+X+X+X+X+X+X+X+X+X+Xh.`.^.# +X+X+X+X+X+X+X+X+X+X+X+X+X+X",
"+X+X+X+X+X+X` * d.+X+X+Xy.: S.Q.[.* % ) +X+X+Xh.* h.+X+X+X+X+X+X",
"+X+X+X+X+X5.* #.* ! * % W k oXZ..XB.D.< < * > w.= * d.+X+X+X+X+X",
"+X+X+X+X+X+X`.!._.{.A.}. XN.*.`.{.V._.M.Q./ D.t.^.* , +X+X+X+X+X",
"+X+X+X+X+X+XQ Z.A.'.]..X*.).-.Q.w w.E.E.C.e.^./.!.: +X+X+X+X+X+X",
"+X+X+X+X+X+X7 S.D.Z.].p ; : 7 OXy , o : R.-.c.F.9 7 +X+X+X+X+X+X",
"+X+X+X+X+X+X: z.o.S.c.7 W.R.p.T.s g.g.+.% j.h.h.j.# +X+X+X+X+X+X",
"+X+X+X+X+X& w.z.e.% XX).g.w.>.6.a u.p.} R.8 ] i.r.& * +X+X+X+X+X",
"+X+X+X+X4.: | o.: e t w.^ U H.( l B 2.g.) T z f.e.9.* 6.+X+X+X+X",
"+X0.. X + r.t.f.% g.] g ) D.L.m.l.i.W Z.v L 0 & ..o.8 . . @ q.+X",
"+X7 8.D.d.d.w.: / p.r.V :.N J b.z B G.-.i.I P.m 7.<.M.w.z.: e +X",
"+X+ f.7.j.M.M.c.^ t j d M b P C I L.I.b.3.f >.p.B.a.X.y.7.* * +X",
"+X+XQ } $.X.w.@.f.].2.+.P.C d Z H U.h S ' ^.E.e.{ t.q.r.+.Q +X+X",
"+X+X+Xf.+.>.:.; a.u.l.u.C C P C Y.P F C ^ T.F.a.w ;.,.% q.+X+X+X",
"+X+X+X+X3 ,.p.7 a.r.G.r.B P C P C C n D | R.R.3.5 9.q.# , +X+X+X",
"+X+X+X+X+ 7.9.r s.s.[ ;.D F J.Y C P I w.s.>.R., 3.>.[ # +X+X+X+X",
"+X+X+X+X+ q.:.r ^ Z.q.:.+.v.K.I R E A y 1.p.6 ; :.-.( % +X+X+X+X",
"+X+X+X+X* 2.1.[ 2.s.p b.S a i.x =.9.] i.] i 6.:.7.@.= * +X+X+X+X",
"+X+X+Xd.7.9.1.2.p r q U.G N.:.i.2.!.j W.s.~.: 2.1.w.6.X 5.+X+X+X",
"+X+Xq.W 6.9.,.@.:.7 c L m p. .XX`.f.u.W.W.# -.6.6.9.4.#.# 0.+X+X",
"+X+X+X* 2.:.<.O.X.X.i % ! 9.2.}. Xs.y.w W | y.6.%.#.q.~ 2 Q +X+X",
"+X+X+X8.& ` 8.; 7.| 7.<.7.r Q ( E.u 1.{ <.9.@.4.@ 5._ & ) +X+X+X",
"+X+X+X+X+X+X+X5.= 7.6.6.w.:.w.,.w.;.,.@.X.h Q : _ +X+X+X+X+X+X+X",
"+X+X+X+X+X+X+X+X+Xo $.6.} @.$.%.8.:.1.>.w.2 : +X+X+X+X+X+X+X+X+X",
"+X+X+X+X+X+X+X+X+X+X#.6.7.{ <.[ 7.@.6.4.%.. +X+X+X+X+X+X+X+X+X+X",
"+X+X+X+X+X+X+X+X+X+Xr.#.+.@ 7 7 : 3 e 6.1.O +X+X+X+X+X+X+X+X+X+X",
"+X+X+X+X+X+X+X+X+X8.* ` . +X+X+X+X+X+X#.> > W +X+X+X+X+X+X+X+X+X",
"+X+X+X+X+X+X+X+X+X+Xq.* 0.+X+X+X+X+X+X&.2 0.+X+X+X+X+X+X+X+X+X+X",
"+X+X+X+X+X+X+X+X+X+X+X+X+X+X+X+X+X+X+X+X+X+X+X+X+X+X+X+X+X+X+X+X"
};
