/* XPM */
static char *result[] = {
/* columns rows colors chars-per-pixel */
"32 32 27 1 ",
"  c #55B33B",
". c #64BA35",
"X c #64BD37",
"o c #6ABD33",
"O c #64B73F",
"+ c #6FC03A",
"@ c #4D935F",
"# c #5EA059",
"$ c #61B143",
"% c #68B640",
"& c #7AB94A",
"* c #60A752",
"= c #7FAD57",
"- c #669460",
"; c #6E9663",
": c #729E69",
"> c #6A8E71",
", c #98CF3F",
"< c #ADE628",
"1 c #B8ED26",
"2 c #81BB4D",
"3 c #84BD4C",
"4 c #88BD4E",
"5 c #82B353",
"6 c #80C145",
"7 c #88C14B",
"8 c #8BC34A",
/* pixels */
"88 88888888888888888888888888888",
"88888888888888888888888888888888",
"8888888888822888 888888888888888",
"888888888888888888828888888 8888",
"888888888888 8 8888888888888 888",
"88888888888888888882288888888888",
"8828&88888888=88888X8 8888888888",
"8388-88888.8888878888#% 88888888",
"88888888888888888888888888888888",
"88888888 88888888888888888188888",
"888888 8X888882888888888888 =888",
"888888888888888888888X88888@8888",
"88888888888o88888 888<8888888888",
"8888888888888888888888 8888888;2",
"888888888=8888888888888888288888",
"88888883888888888888888278888888",
"888888888888888 8828888888888888",
"8888 888,888888888888888881 8828",
"88888888888888888888X8 888888888",
"888888888888888888888:8888888888",
"888888888@88888X8 88888888888888",
"8888888888888o8888=8888888888288",
"8888888888888   =888888888882888",
"88888888,888888888888888+8888888",
"88888887888888888888886$* 8O4888",
"888@888888@8888888888888@=8 8888",
"8888888888888888888,888888888888",
"8288888O888888888888888888888888",
"8888888588888@888888888888888888",
"888888888888888,88 88 8848888888",
"88888888888888888888@>8@48888888",
"88888888888888888888888888888@88"
};
