/* XPM */
static char *a830fcdeda57476a92b35cbaa9fff210Jq38KHBGeVgjb1bR[] = {
/* columns rows colors chars-per-pixel */
"32 32 43 1 ",
"  c #59413E",
". c #574140",
"X c #534045",
"o c #514047",
"O c #534147",
"+ c #554146",
"@ c #5D4443",
"# c #584245",
"$ c #554248",
"% c #584348",
"& c #5A4448",
"* c #5D4549",
"= c #5C454A",
"- c #604541",
"; c #614645",
": c #664844",
"> c #6A4A46",
", c #624749",
"< c #60474B",
"1 c #664A4A",
"2 c #664A4B",
"3 c #684A48",
"4 c #6F4D48",
"5 c #6D4D4B",
"6 c #704D49",
"7 c #704E4B",
"8 c #734F4A",
"9 c #77514C",
"0 c #74504E",
"q c #78524D",
"w c #7B534E",
"e c #7C544F",
"r c #735050",
"t c #7C5551",
"y c #7E5550",
"u c #7E5653",
"i c #805651",
"p c #815651",
"a c #835852",
"s c #875A54",
"d c #895B55",
"f c #8A5B55",
"g c #8C5C56",
/* pixels */
"o&5q99999995&oooo&5999999995&ooo",
"&,59999999971*$$%<7q999999951&%o",
"5799999999qqer*&17099999999wt0&o",
"99999999999tft*&590q9999999ess<o",
"99999999999tfu<&5q999999999tsu&o",
"99999999999qdu<&59999999999tsu=o",
"99999999999tsu<&59999999999wdu<o",
"99999999999tsu<&59999999990tss<o",
"99999999999efu&&59999999999wst<o",
"99999q999qwpft<&5999999999waft<o",
"qq99qq99qepfft*%599999999waffa<o",
"47qeeeqtetffsq*%:0qeeeewtuffs0&o",
"->esssfssffs5-++@>asssssfsss5;+X",
" -qppeppptpq;.XXX-8apappaae9;XXo",
"++;::::::::-#+oX+.-::::::::;+XXo",
"o+@--------@+ooo++@----; @-@+ooo",
"+#>444445473&oooo&:04444444>&ooo",
"#,5q9999q9952=o%$<59999999q71&+o",
"574q9999q99ttr=&17099999999qtr&o",
"qq999999990tfu=&59999999999ess<o",
"q9999999999wsu&&59999999999wsu&o",
"q999999999qedu<=59999999999tst<o",
"99999999999wst<&59999999999tfu<o",
"9999999999qess<&59999999990tdu<o",
"99999999qqqwsp<&59999999999est*o",
"99999999qqqpft*&5999999999epfp<o",
"999qqq99qqssfa*%599999999esffa<o",
"77qwwewwtesfa0*&:0qeeeewttsfs9&o",
"->esssssfffs5;+o@4esssssssss5;+o",
" ;qpppptaetq- oXX-qpepapappq;+Xo",
"+X;::::::::-#ooo++-::::::::-+XXo",
"oX          +oooX+.        XXooo"
};
