/* XPM */
static char *_0158f1e98ef4aac9dfaa7171c8fa8963lYsXE3d5g2zUV7K[] = {
/* columns rows colors chars-per-pixel */
"32 32 130 2 ",
"   c None",
".  c #020204",
"X  c #040406",
"o  c #050506",
"O  c #050507",
"+  c #060607",
"@  c #050508",
"#  c #060608",
"$  c #11090A",
"%  c #10090B",
"&  c #120A0B",
"*  c #17080A",
"=  c #0E0D10",
"-  c #101011",
";  c #161617",
":  c #250E10",
">  c #270F10",
",  c #2B0F11",
"<  c #2C1011",
"1  c #2F1112",
"2  c #2D1618",
"3  c #361111",
"4  c #351E1F",
"5  c #1E1C20",
"6  c #201F22",
"7  c #281F22",
"8  c #222125",
"9  c #252428",
"0  c #27272B",
"q  c #3D2528",
"w  c #292C30",
"e  c #2A2D31",
"r  c #2B3034",
"t  c #353536",
"y  c #353338",
"u  c #313538",
"i  c #3F3739",
"p  c #401313",
"a  c #541717",
"s  c #631F20",
"d  c #47272A",
"f  c #6A2021",
"g  c #6B2628",
"h  c #702222",
"j  c #752324",
"k  c #792525",
"l  c #7B3537",
"z  c #684B3F",
"x  c #3D3A40",
"c  c #3E3F41",
"v  c #3F3D43",
"b  c #444446",
"n  c #414349",
"m  c #43464C",
"M  c #4D494F",
"N  c #4F4C52",
"B  c #574C52",
"V  c #514E54",
"C  c #555157",
"Z  c #6C5257",
"A  c #76545A",
"S  c #5F6B71",
"D  c #646067",
"F  c #6C676F",
"G  c #696970",
"H  c #6E6A72",
"J  c #737374",
"K  c #717078",
"L  c #72737B",
"P  c #7C767F",
"I  c #822727",
"U  c #8A2E2F",
"Y  c #952B2B",
"T  c #9A2C2C",
"R  c #9A3D3F",
"E  c #AC3131",
"W  c #AC3232",
"Q  c #AD3232",
"!  c #AC3333",
"~  c #AF5A30",
"^  c #924D4E",
"/  c #9D4E52",
"(  c #9C565A",
")  c #A24547",
"_  c #AB5145",
"`  c #BF6840",
"'  c #BB6154",
"]  c #936167",
"[  c #98776F",
"{  c #8E6B72",
"}  c #916F71",
"|  c #B97375",
" . c #C16565",
".. c #717A82",
"X. c #847E87",
"o. c #807F88",
"O. c #907980",
"+. c #76838B",
"@. c #79828A",
"#. c #7E8B93",
"$. c #8A8A93",
"%. c #908F97",
"&. c #889399",
"*. c #89919A",
"=. c #8E939C",
"-. c #929293",
";. c #93949D",
":. c #AA9095",
">. c #B19A9B",
",. c #BFA19D",
"<. c #8D9AA3",
"1. c #9C99A0",
"2. c #95A1AB",
"3. c #97A4AE",
"4. c #9AAAB4",
"5. c #9BADB7",
"6. c #AEB1B4",
"7. c #A1B2BB",
"8. c #A8B1B8",
"9. c #AEBCC4",
"0. c #B4C1C9",
"q. c #C1C1C1",
"w. c #CDCFD3",
"e. c #D0D0D1",
"r. c #D3DBDF",
"t. c #EACCCC",
"y. c #E8D0D1",
"u. c #E3DADC",
"i. c #E6EAED",
"p. c #EFEFF0",
/* pixels */
"                    @ @ @ @ # #                                 ",
"                    @ % : 3 < <                                 ",
"                    @ : f k I f < @                             ",
"                    O < f U R l 2 #                             ",
"                        < d A Z 8 + # @ @ @ @ @                 ",
"                        8 x F H b r r r r r r w                 ",
"                    O 8 V F P o.@.+.+.+.+.+.+.G e O             ",
"                    8 v K $.$.=.3.5.5.5.5.5.5.+.r O             ",
"                O 8 V K *.2.2.3.4.5.5.5.5.5.5.+.r @             ",
"                @ 0 G =.3.7.9.0.0.0.0.0.0.0.0.&.u @             ",
"                @ e ..3.4.9.r.i.i.i.i.i.i.i.i.6.c @             ",
"                @ r +.5.5.0.i.p.e.q.q.q.q.q.q.-.t @             ",
"                @ r +.5.5.0.i.e.J b b b b b b t ; @             ",
"                @ e ..3.4.0.i.e.J b b t ; ; t t ; @             ",
"                @ 0 G =.3.0.i.p.e.q.q.-.t t -.-.t @             ",
"                @ 5 M K *.8.w.u.y.t.t.,.z z ,.>.i @             ",
"                @ = 6 v K %.1.:.|  . .' ~ ~ ' ^ 4 @             ",
"                @ @ . 7 Z { } ] / ) ) _ ` ` _ l 2 @             ",
"                    @ 2 l ) ) / ] { { } [ [ } Z 8 +             ",
"                    $ 2 l ) ) ( O.$.$.$.$.$.$.G 0 +             ",
"                Q k , 7 Z } { O.;.2.2.2.2.2.2...e @             ",
"                Q I < 0 D X.X.X.@.+.+.+.+.#.<...e @             ",
"            Q W Q I 3 8 D X.X.H n r r r r m L G 0 @             ",
"            W W W I < 0 D ..F B q : % = 5 y C N 6 O             ",
"            Q W Q I 3 0 D F x q g s : 2 M V y 6 -               ",
"            Y T T h : 5 M N 6 , j g : 6 M V 6 O                 ",
"              a a 3 % = ; 8 - * 3 3 & = 6 6 -                   ",
"                    O # @ @         . O + .                     ",
"                      . .             . .                       ",
"                                                                ",
"                                                                ",
"                                                                "
};
