/* XPM */
static char *b6d42bf6eaca43edc73c8472d646e5fbCPBM3c925oZ2bjks[] = {
/* columns rows colors chars-per-pixel */
"32 32 149 2 ",
"   c None",
".  c #090300",
"X  c #0F0700",
"o  c #080705",
"O  c #130A01",
"+  c #140901",
"@  c #150A01",
"#  c #170C01",
"$  c #190B00",
"%  c #1A0D02",
"&  c #1C0D00",
"*  c #1D0E00",
"=  c #1C0C02",
"-  c #191006",
";  c #1D150B",
":  c #200D00",
">  c #220F01",
",  c #210E03",
"<  c #200E07",
"1  c #2A0F02",
"2  c #350C01",
"3  c #380E02",
"4  c #211001",
"5  c #221100",
"6  c #221101",
"7  c #231101",
"8  c #211002",
"9  c #231202",
"0  c #251100",
"q  c #251001",
"w  c #241201",
"e  c #251201",
"r  c #241301",
"t  c #251301",
"y  c #261201",
"u  c #261301",
"i  c #241202",
"p  c #251202",
"a  c #251302",
"s  c #251303",
"d  c #261302",
"f  c #271302",
"g  c #271303",
"h  c #271402",
"j  c #251305",
"k  c #211405",
"l  c #251404",
"z  c #261404",
"x  c #241406",
"c  c #261506",
"v  c #2C1302",
"b  c #281401",
"n  c #2A1401",
"m  c #281402",
"M  c #291402",
"N  c #291503",
"B  c #2A1707",
"V  c #20150B",
"C  c #2F1D08",
"Z  c #281A0D",
"A  c #2A1A0C",
"S  c #2D1A0C",
"D  c #311C0B",
"F  c #2A1D12",
"G  c #2B1F14",
"H  c #261F18",
"J  c #281F18",
"K  c #2C241B",
"L  c #28231E",
"P  c #2C241D",
"I  c #342113",
"U  c #352415",
"Y  c #302118",
"T  c #35281C",
"R  c #3B2C1E",
"E  c #3D2C1E",
"W  c #161F24",
"Q  c #282420",
"!  c #282624",
"~  c #292624",
"^  c #292828",
"/  c gray16",
"(  c #29292A",
")  c #292A2A",
"_  c #312E25",
"`  c #3A2C20",
"'  c #302C28",
"]  c #343230",
"[  c #353332",
"{  c #353434",
"}  c #353534",
"|  c #363534",
" . c gray21",
".. c #373636",
"X. c #363637",
"o. c #373637",
"O. c #363737",
"+. c #3A3C34",
"@. c #3C3D36",
"#. c #3C3E36",
"$. c #4B0900",
"%. c #720200",
"&. c #790000",
"*. c #7A0000",
"=. c #7C0000",
"-. c #423323",
";. c #4E3625",
":. c #3D4039",
">. c #3E413A",
",. c #675227",
"<. c #735C2B",
"1. c #4B4442",
"2. c #5A4D41",
"3. c #6B5241",
"4. c #705645",
"5. c #71675D",
"6. c #786C60",
"7. c #7C746B",
"8. c #7F746A",
"9. c #9B7845",
"0. c #857E76",
"q. c #9E8171",
"w. c #97918C",
"e. c #9F968C",
"r. c #A2998F",
"t. c #A49B91",
"y. c #A49C92",
"u. c #A59C92",
"i. c #A59C93",
"p. c #A69D93",
"a. c #A79E94",
"s. c #A09D9A",
"d. c #B9A396",
"f. c #A9A6A4",
"g. c #BABAB9",
"h. c #BEBDBC",
"j. c gray75",
"k. c #C2A08F",
"l. c #E1BDAC",
"z. c #C2C3C3",
"x. c gray83",
"c. c #FFD7C6",
"v. c #FFD8C6",
"b. c #FFD8C7",
"n. c #FBDBC9",
"m. c gray88",
"M. c #FBFAFA",
"N. c #FEFEFE",
"B. c white",
/* pixels */
"            u  .G 5                                             ",
"         . . . . . . . .                                        ",
"       . . . . . . . . . . .                                    ",
"     . . . . . . . . . . . . .                                  ",
"   . . . . . . . . . . . . . . .                                ",
"u  . . . . . . . . . . . . . . .u                               ",
" . . . . . . . . . . . . . . . . .              <               ",
" . . . . . . . . . . . . . . . . .          c.k.3.              ",
" . . . . . . . . . . . . .w.j.u O.          S u c.              ",
"u  . . . . . . . . .D m.m.j.x. .O.      6.t.: p.                ",
"   . . . .n 0.j.j.j.j.j.m.j.T b.,   u Q / 5 u                   ",
"  O. .7.j.j.j.j.j.j.j.j.m.F u d.P u / / / (     z.              ",
"     .E f.j.z.j.j.j.j.{ I j M.A  . ./ / Q >                     ",
"      O.h N N m A 4.P  . . . . . . .u u / m.                    ",
"        m c.N.N.5  . . . . . . . . .^ K 9                       ",
"        /  . . . . . . .c  .1. . .g.*       u                   ",
"        / / u  . . . . .[ <.9.j.s. .      &.&.u                 ",
"        / / / -.U p.c.c.c.c.W j  . . .  n %.&.                  ",
"        / / t.t.t.l.c.c.n.c.q.C  . .1 u &.c &.n                 ",
"      5 / / t.e.t.c.c.b.c.c.5  .: $.3 v &.&.&.g                 ",
"          L ^ u ,.u b.;. .5 2 &.o.' / / / ~                     ",
"                  / J [  . .O.&  . .O./ / / /   u               ",
"              : / / /  . . . .@  . . .j / / / / /               ",
"            / / / / / /  . . . . . . .5 / / / / ~ ` 8.          ",
"            / / / / / / -  . . . .O.O.  * / / 2.i.& t.t.k       ",
"            o . X @ / ;                               #.:.:.c   ",
"                  @ 5.p._                               5 :.u @.",
"                      $ :.                                u u   ",
"                      # :.:.                                    ",
"                      R :.:.                                    ",
"                      ; @.:.                                    ",
"                        :.:.                                    "
};
