/* XPM */
static char *result[] = {
/* columns rows colors chars-per-pixel */
"15 21 28 1 ",
"  c #532307",
". c #642C0C",
"X c #515151",
"o c gray32",
"O c #694444",
"+ c #684646",
"@ c #B40000",
"# c #B50000",
"$ c #BB0000",
"% c #833D10",
"& c #D90000",
"* c #E30000",
"= c #E30101",
"- c #E90000",
"; c #EA0909",
": c #F30000",
"> c #F90101",
", c red",
"< c #FF0404",
"1 c #FF2E2E",
"2 c #EA3D3D",
"3 c #FF3535",
"4 c #B5561B",
"5 c gray72",
"6 c #BCBCBC",
"7 c gray82",
"8 c white",
"9 c None",
/* pixels */
"999999 .  99999",
"99999%444499999",
"99999 444499999",
"9999X95X79X9999",
"9999X99988X9999",
"99999XXXXX99999",
"99999X999X99999",
"99999X999o99999",
"999999699999999",
"999X9969999X999",
"9X99966899999X9",
"X9*##**2=***89X",
"X@#$*********8X",
"X-&,,,,,,,,,,8+",
"X&&,,,,,,,,,,<X",
"X:&,,33,,,,,,,X",
"X,&,,,,,,,,,,,X",
"9,&,,,,,,,,,,,9",
"9o,&,,,,1,,,,X9",
"99X,,,,,1,,,X99",
"9999XXO;>XX9999"
};
