/* XPM */
static char *e932a9990b9143c8bf6f3aed370835b4GORMv5Qt9kZ7g2iF[] = {
/* columns rows colors chars-per-pixel */
"32 32 51 1 ",
"  c #353E50",
". c #384255",
"X c #3A4457",
"o c #3B4559",
"O c #3D475C",
"+ c #3E495E",
"@ c #3F4B60",
"# c #404A5F",
"$ c #414C62",
"% c #424D62",
"& c #434E64",
"* c #434F65",
"= c #445066",
"- c #445167",
"; c #455168",
": c #46526A",
"> c #47546C",
", c #48546B",
"< c #49556E",
"1 c #4A576F",
"2 c #4B5870",
"3 c #4C5973",
"4 c #4E5B73",
"5 c #4F5D77",
"6 c #505E79",
"7 c #515E7A",
"8 c #525F7B",
"9 c #53617E",
"0 c #55627E",
"q c #54627F",
"w c #566481",
"e c #576583",
"r c #596782",
"t c #586783",
"y c #5C6A86",
"u c #5D6B87",
"i c #5A6988",
"p c #5B6A89",
"a c #5C6B8A",
"s c #5E6D8C",
"d c #5F6E8E",
"f c #606F8B",
"g c #606F8C",
"h c #61708E",
"j c #637392",
"k c #647390",
"l c #667595",
"z c #6A7999",
"x c #6B7B9B",
"c c #6E7E9E",
"v c #6F7F9F",
/* pixels */
"*@.            .$+.             ",
"**%**%&&%**%&&&&&&*&&&&&&&&&&&&&",
"*1rfffggffggggfr11rggggggfffffff",
"*4kcxzzzzzzzzxck44kcxzzzzzzzzxcv",
"&4gzkggddddggkvh44kckggggdgggkxv",
"$1tyq788qq7778fq,,qyq777ww777qpg",
".o$$$O+$::&O##$$oo$%$++$;;$++#%&",
"&&**$***&&&&&&$**%&&%&&&;$&&&&&&",
"ffffgggt22tgdsgggggggggt21tggggg",
"zzzzzxxk44kcxzzzzzzzzxck32hcxzzz",
"ggfggjxk44kxjddgddddgkxk34kckggg",
"iiiiislg42ygsiiiiiiiislg33hldiii",
"iiiiiise2:28riiiiiiiipge22tgiiii",
"w8888883*$$&27888w777782;&387777",
"<:$OOO@O X.oO$O$::$O$OOOXXoO$oO$",
"*******$&&&&$&*$****&$*$****&$**",
"-2rgfffdffghhhht24tgggggffgggghs",
"&4hczzzzzzzzzzck23gczzzzzzzzzzcv",
"*4gchhddddgddkzk44hclsddsgdddkcc",
"&4dlgieeitiiedlh44gldiiiiiiiiskz",
"-2rdiw23eiiieigt22tgptiiieiiiidd",
"+&2764*:59776683&*268888ww877777",
"..++++oo=:%+++++XXo$@@O$::$#$O@O",
"**%*%*%***====%%&&&&$&&&**&&$$;$",
"gghhggkq11rdgghfggggsdke11rghhgg",
"zzzzzzcg44kczzzzzzzzzcch44kczzzz",
"gdddhhch44jzkhddgdfdskxk44kzkgdd",
"tiiithlh24dldeiiiiiitsjd42gldiie",
"iiiedide22ediiiiiiiieide22wsiiii",
"qqe99w97::8ww8wwe99ewwe6::6wwww9",
"1111>11::-:>:21:1>>12:2:--:1:2>2",
"*%*****-**********=%************"
};
